<svg id="dots" width="40" height="40" viewBox="0 0 40 40" fill="none" xmlns="http://www.w3.org/2000/svg">
<rect width="40" height="40" fill="white"/>
<path d="M9 20C9 18.8954 9.89543 18 11 18C12.1046 18 13 18.8954 13 20C13 21.1046 12.1046 22 11 22C9.89543 22 9 21.1046 9 20Z" fill="#9747FF"/>
<path d="M18 20C18 18.8954 18.8954 18 20 18C21.1046 18 22 18.8954 22 20C22 21.1046 21.1046 22 20 22C18.8954 22 18 21.1046 18 20Z" fill="#9747FF"/>
<path d="M27 20C27 18.8954 27.8954 18 29 18C30.1046 18 31 18.8954 31 20C31 21.1046 30.1046 22 29 22C27.8954 22 27 21.1046 27 20Z" fill="#9747FF"/>
</svg>
