<svg width="107" height="43" viewBox="0 0 107 43" fill="none" xmlns="http://www.w3.org/2000/svg">
<path d="M64.392 19.072C65.008 19.072 65.484 19.24 65.82 19.576C66.1747 19.912 66.352 20.3787 66.352 20.976C66.352 21.1253 66.3333 21.284 66.296 21.452C66.2773 21.6013 66.2493 21.732 66.212 21.844C65.9693 21.8067 65.6987 21.7787 65.4 21.76C65.1013 21.7227 64.7467 21.704 64.336 21.704C63.5333 21.704 62.7213 21.7787 61.9 21.928C61.0787 22.0587 60.2947 22.1707 59.548 22.264C59.1187 23.2533 58.7267 24.2147 58.372 25.148C58.0173 26.0627 57.7093 26.9027 57.448 27.668C57.2053 28.4333 57.0093 29.096 56.86 29.656C56.7293 30.216 56.6547 30.636 56.636 30.916C58.148 30.5987 59.6693 30.328 61.2 30.104C62.7493 29.88 64.3733 29.712 66.072 29.6C66.2773 29.9173 66.4453 30.2627 66.576 30.636C66.7253 31.0093 66.8 31.4107 66.8 31.84C66.8 31.952 66.8 32.0733 66.8 32.204C66.8 32.3347 66.7813 32.4653 66.744 32.596C66.2213 32.5773 65.6707 32.5587 65.092 32.54C64.5133 32.54 63.7573 32.54 62.824 32.54C62.208 32.54 61.62 32.5493 61.06 32.568C60.5187 32.6053 59.968 32.652 59.408 32.708C58.848 32.764 58.2507 32.8387 57.616 32.932C57 33.0253 56.3 33.1373 55.516 33.268C54.6573 32.932 53.8267 32.1107 53.024 30.804C53.3413 30.132 53.78 29.1147 54.34 27.752C54.9187 26.3707 55.6467 24.532 56.524 22.236C55.684 21.9747 55.1333 21.508 54.872 20.836C54.9653 20.7427 55.236 20.6307 55.684 20.5C56.132 20.3507 56.6827 20.2013 57.336 20.052C57.616 19.324 57.8493 18.6893 58.036 18.148C58.2413 17.6067 58.4187 17.1027 58.568 16.636C58.7173 16.1507 58.848 15.684 58.96 15.236C59.0907 14.7693 59.212 14.2653 59.324 13.724C58.6707 13.6867 58.1573 13.5093 57.784 13.192C57.4107 12.856 57.224 12.4267 57.224 11.904C57.224 11.7547 57.2427 11.5773 57.28 11.372C57.336 11.1667 57.392 10.9893 57.448 10.84C57.8213 10.896 58.176 10.9333 58.512 10.952C58.8667 10.9707 59.324 10.98 59.884 10.98C61.06 10.98 62.1613 10.952 63.188 10.896C64.2147 10.8213 65.1387 10.7467 65.96 10.672C66.8 10.5973 67.5187 10.532 68.116 10.476C68.7133 10.4013 69.1707 10.364 69.488 10.364C69.9173 10.364 70.3 10.588 70.636 11.036C70.972 11.484 71.224 12.1187 71.392 12.94C70.8133 12.884 70.3373 12.8467 69.964 12.828C69.6093 12.8093 69.292 12.8 69.012 12.8C67.9853 12.8 67.0427 12.856 66.184 12.968C65.344 13.0613 64.532 13.164 63.748 13.276C63.636 13.444 63.5053 13.6587 63.356 13.92C63.2253 14.1813 63.048 14.5453 62.824 15.012C62.6 15.4787 62.32 16.0667 61.984 16.776C61.6667 17.4853 61.2747 18.372 60.808 19.436C61.5173 19.324 62.18 19.24 62.796 19.184C63.4307 19.1093 63.9627 19.072 64.392 19.072ZM69.0168 26.072C69.0168 25.008 69.2315 23.9813 69.6608 22.992C70.1088 21.984 70.6875 21.0973 71.3968 20.332C72.1248 19.548 72.9461 18.9227 73.8608 18.456C74.7941 17.9707 75.7555 17.728 76.7448 17.728C77.7155 17.728 78.4621 17.9707 78.9848 18.456C79.5075 18.9413 79.7688 19.632 79.7688 20.528C79.7688 20.9573 79.7035 21.3773 79.5728 21.788C79.4608 22.18 79.3021 22.5347 79.0968 22.852C78.9101 23.1693 78.6861 23.4307 78.4248 23.636C78.1635 23.8227 77.9021 23.916 77.6408 23.916C77.4168 23.916 77.1835 23.8507 76.9408 23.72C76.7168 23.5707 76.5301 23.384 76.3808 23.16C77.6315 22.0213 78.2568 20.9853 78.2568 20.052C78.2568 19.5107 78.0421 19.24 77.6128 19.24C77.2395 19.24 76.7728 19.4173 76.2128 19.772C75.6528 20.1267 75.1115 20.5933 74.5888 21.172C73.7861 22.068 73.1701 23.0667 72.7408 24.168C72.3301 25.2507 72.1248 26.3893 72.1248 27.584C72.1248 29.096 72.4608 30.0013 73.1328 30.3C73.4128 30.2627 73.7395 30.1787 74.1128 30.048C74.4861 29.9173 74.8875 29.7493 75.3168 29.544C75.7461 29.32 76.1848 29.068 76.6328 28.788C77.0995 28.508 77.5475 28.2093 77.9768 27.892C78.0515 27.948 78.1168 28.032 78.1728 28.144C78.2288 28.256 78.2568 28.3587 78.2568 28.452C77.9395 28.844 77.5755 29.2267 77.1648 29.6C76.7541 29.9733 76.3248 30.3187 75.8768 30.636C75.4288 30.9347 74.9901 31.1867 74.5608 31.392C74.1501 31.616 73.7861 31.756 73.4688 31.812C72.8528 31.756 72.2741 31.56 71.7328 31.224C71.1915 30.9067 70.7155 30.4867 70.3048 29.964C69.9128 29.4413 69.5955 28.844 69.3528 28.172C69.1288 27.5 69.0168 26.8 69.0168 26.072ZM80.5786 30.524C80.5786 29.8707 80.644 29.1053 80.7746 28.228C80.9053 27.332 81.092 26.38 81.3346 25.372C81.596 24.364 81.8946 23.3093 82.2306 22.208C82.5853 21.1067 82.9773 20.0053 83.4066 18.904C83.78 17.9147 84.2093 16.916 84.6946 15.908C85.1986 14.9 85.74 13.9107 86.3186 12.94C86.8973 11.9693 87.4946 11.0453 88.1106 10.168C88.7453 9.29067 89.38 8.488 90.0146 7.76C90.3133 7.76 90.6306 7.79733 90.9666 7.872C91.3213 7.94667 91.6573 8.04933 91.9746 8.18C92.3106 8.292 92.6093 8.432 92.8706 8.6C93.1506 8.768 93.3746 8.936 93.5426 9.104C92.1426 10.5413 90.8826 11.9973 89.7626 13.472C88.6426 14.928 87.756 16.3 87.1026 17.588C86.748 18.2973 86.4213 18.96 86.1226 19.576C85.8426 20.192 85.5813 20.808 85.3386 21.424C85.096 22.0213 84.872 22.628 84.6666 23.244C84.48 23.8413 84.3026 24.476 84.1346 25.148C87.7186 20.5747 90.3786 18.288 92.1146 18.288C92.6 18.288 93.1226 18.4467 93.6826 18.764C94.2426 19.0813 94.7373 19.5107 95.1666 20.052C94.588 20.6867 93.9906 21.452 93.3746 22.348C92.7586 23.244 92.1893 24.1493 91.6666 25.064C91.1626 25.96 90.7426 26.8 90.4066 27.584C90.0893 28.3493 89.9306 28.9187 89.9306 29.292C89.9306 29.4787 89.9586 29.6093 90.0146 29.684C90.0706 29.74 90.192 29.768 90.3786 29.768C90.6586 29.768 90.8826 29.7307 91.0506 29.656C91.2186 29.5813 91.3213 29.544 91.3586 29.544C91.452 29.6933 91.508 29.796 91.5266 29.852C91.5453 29.908 91.5546 29.9547 91.5546 29.992C91.5546 30.0667 91.4426 30.1787 91.2186 30.328C90.9946 30.4587 90.724 30.5987 90.4066 30.748C90.108 30.8787 89.8093 31 89.5106 31.112C89.212 31.224 88.988 31.28 88.8386 31.28C88.652 31.28 88.4653 31.224 88.2786 31.112C88.092 31.0187 87.924 30.888 87.7746 30.72C87.644 30.552 87.532 30.3653 87.4386 30.16C87.364 29.9547 87.3266 29.74 87.3266 29.516C87.3266 29.236 87.4013 28.8253 87.5506 28.284C87.7186 27.724 87.9426 27.08 88.2226 26.352C88.5026 25.6053 88.8386 24.7933 89.2306 23.916C89.6226 23.0387 90.0426 22.1427 90.4906 21.228C90.4906 21.1533 90.4533 21.116 90.3786 21.116C90.3226 21.116 90.1733 21.1907 89.9306 21.34C89.7066 21.4893 89.492 21.6387 89.2866 21.788C88.6146 22.292 87.9333 22.9173 87.2426 23.664C86.5706 24.392 85.908 25.1947 85.2546 26.072C84.62 26.9493 84.0133 27.8827 83.4346 28.872C82.8746 29.8427 82.3893 30.8227 81.9786 31.812C81.9226 31.9427 81.8386 32.064 81.7266 32.176C81.6146 32.288 81.5213 32.344 81.4466 32.344C81.3906 32.344 81.3066 32.2787 81.1946 32.148C81.1013 32.0173 81.008 31.8493 80.9146 31.644C80.84 31.4573 80.7653 31.2613 80.6906 31.056C80.616 30.8507 80.5786 30.6733 80.5786 30.524ZM98.3755 31.98C97.3115 31.868 96.4621 31.4013 95.8275 30.58C95.1928 29.7587 94.8755 28.7133 94.8755 27.444C94.8755 26.6973 94.9875 25.9227 95.2115 25.12C95.4355 24.3173 95.7528 23.5427 96.1635 22.796C96.5741 22.0307 97.0595 21.312 97.6195 20.64C98.1795 19.968 98.7861 19.3893 99.4395 18.904C100.466 18.1387 101.427 17.756 102.323 17.756C102.921 18.0733 103.509 18.736 104.087 19.744C104.181 19.744 104.265 19.744 104.339 19.744C104.414 19.7253 104.498 19.716 104.591 19.716C105.581 19.716 106.075 20.5933 106.075 22.348C106.075 23.524 105.879 24.644 105.487 25.708C105.114 26.7533 104.582 27.7053 103.891 28.564C103.219 29.4227 102.407 30.1507 101.455 30.748C100.522 31.3267 99.4955 31.7373 98.3755 31.98ZM99.8035 23.16C99.4861 23.5893 99.1875 24.056 98.9075 24.56C98.6275 25.064 98.3848 25.5773 98.1795 26.1C97.9741 26.604 97.8155 27.0987 97.7035 27.584C97.5915 28.0507 97.5355 28.4707 97.5355 28.844C97.5355 29.292 97.6101 29.7213 97.7595 30.132C97.9088 30.5427 98.0768 30.776 98.2635 30.832C99.1035 30.6453 99.8688 30.3 100.559 29.796C101.269 29.2733 101.875 28.6293 102.379 27.864C102.902 27.0987 103.303 26.2307 103.583 25.26C103.882 24.2893 104.031 23.2533 104.031 22.152C104.031 21.6667 104.003 21.284 103.947 21.004C103.891 20.724 103.798 20.4813 103.667 20.276C102.846 20.5187 102.109 20.9107 101.455 21.452C100.821 21.9933 100.27 22.5627 99.8035 23.16Z" fill="#C707D7" fill-opacity="0.94"/>
<path d="M28.3581 42.3179C24.3497 38.2338 22.1741 32.9516 22.2342 27.4442C22.2934 21.9271 24.5681 16.5768 28.4741 12.7649L29.4568 13.7716C25.8155 17.3239 23.6958 22.3127 23.6403 27.4589C23.5849 32.5899 25.6168 37.5169 29.3615 41.3317L28.3581 42.3179Z" fill="url(#paint0_linear_23_1315)"/>
<path d="M33.6043 37.2599C31.0477 34.9079 29.5563 31.4396 29.5122 27.7432C29.4673 23.9716 30.918 20.4706 33.5967 17.8851L34.5736 18.8973C32.1767 21.211 30.8785 24.3463 30.9192 27.726C30.9587 31.0364 32.2846 34.1343 34.5568 36.2246L33.6043 37.2599Z" fill="url(#paint1_linear_23_1315)"/>
<path d="M13.3294 32.5521L12.3474 31.5458C15.9879 27.9927 18.1081 23.0044 18.1635 17.859C18.2185 12.7275 16.1866 7.80055 12.4419 3.98531L13.4457 3C17.4546 7.08362 19.6293 12.3659 19.5701 17.8741C19.5109 23.3904 17.2362 28.7403 13.3294 32.5521Z" fill="url(#paint2_linear_23_1315)"/>
<path d="M8.2075 27.432L7.23059 26.4198C9.62751 24.1064 10.9253 20.9712 10.885 17.5911C10.8455 14.2811 9.51957 11.1832 7.24697 9.09245L8.19952 8.05716C10.756 10.4091 12.2474 13.8779 12.2915 17.5743C12.3369 21.3462 10.8862 24.8469 8.2075 27.432Z" fill="url(#paint3_linear_23_1315)"/>
<path d="M2.63757 20.408C1.18355 20.408 0 19.2249 0 17.7704C0 16.3164 1.18313 15.1328 2.63757 15.1328C4.09202 15.1328 5.27514 16.316 5.27514 17.7704C5.27556 19.2249 4.09202 20.408 2.63757 20.408ZM2.63757 16.5394C1.95886 16.5394 1.40657 17.0917 1.40657 17.7704C1.40657 18.4491 1.95886 19.0014 2.63757 19.0014C3.31628 19.0014 3.86858 18.4491 3.86858 17.7704C3.86858 17.0917 3.31628 16.5394 2.63757 16.5394Z" fill="url(#paint4_linear_23_1315)"/>
<path d="M39.3624 30.2044C37.908 30.2044 36.7249 29.0212 36.7249 27.5668C36.7249 26.1124 37.908 24.9292 39.3624 24.9292C40.8169 24.9292 42 26.1124 42 27.5668C42 29.0212 40.8169 30.2044 39.3624 30.2044ZM39.3624 26.3358C38.6837 26.3358 38.1314 26.8877 38.1314 27.5668C38.1314 28.2451 38.6833 28.7978 39.3624 28.7978C40.0407 28.7978 40.5934 28.2455 40.5934 27.5668C40.593 26.8881 40.0407 26.3358 39.3624 26.3358Z" fill="url(#paint5_linear_23_1315)"/>
<defs>
<linearGradient id="paint0_linear_23_1315" x1="25.8449" y1="12.7649" x2="25.8449" y2="42.3179" gradientUnits="userSpaceOnUse">
<stop stop-color="#9747FF"/>
<stop offset="0.9999" stop-color="#D809AB"/>
<stop offset="1" stop-color="#C707D7" stop-opacity="0"/>
</linearGradient>
<linearGradient id="paint1_linear_23_1315" x1="32.0424" y1="17.8851" x2="32.0424" y2="37.2599" gradientUnits="userSpaceOnUse">
<stop stop-color="#9747FF"/>
<stop offset="0.9999" stop-color="#D809AB"/>
<stop offset="1" stop-color="#C707D7" stop-opacity="0"/>
</linearGradient>
<linearGradient id="paint2_linear_23_1315" x1="15.9593" y1="3" x2="15.9593" y2="32.5521" gradientUnits="userSpaceOnUse">
<stop stop-color="#9747FF"/>
<stop offset="0.9999" stop-color="#D809AB"/>
<stop offset="1" stop-color="#C707D7" stop-opacity="0"/>
</linearGradient>
<linearGradient id="paint3_linear_23_1315" x1="9.76158" y1="8.05716" x2="9.76158" y2="27.432" gradientUnits="userSpaceOnUse">
<stop stop-color="#9747FF"/>
<stop offset="0.9999" stop-color="#D809AB"/>
<stop offset="1" stop-color="#C707D7" stop-opacity="0"/>
</linearGradient>
<linearGradient id="paint4_linear_23_1315" x1="2.63757" y1="15.1328" x2="2.63757" y2="20.408" gradientUnits="userSpaceOnUse">
<stop stop-color="#9747FF"/>
<stop offset="0.9999" stop-color="#D809AB"/>
<stop offset="1" stop-color="#C707D7" stop-opacity="0"/>
</linearGradient>
<linearGradient id="paint5_linear_23_1315" x1="39.3624" y1="24.9292" x2="39.3624" y2="30.2044" gradientUnits="userSpaceOnUse">
<stop stop-color="#9747FF"/>
<stop offset="0.9999" stop-color="#D809AB"/>
<stop offset="1" stop-color="#C707D7" stop-opacity="0"/>
</linearGradient>
</defs>
</svg>
