<svg width="12" height="16" viewBox="0 0 12 16" fill="none" xmlns="http://www.w3.org/2000/svg">
<path d="M6 3.34884C5.47565 3.34884 4.96307 3.50433 4.52709 3.79564C4.09111 4.08695 3.75131 4.50101 3.55065 4.98544C3.34998 5.46988 3.29748 6.00294 3.39978 6.51722C3.50207 7.03149 3.75457 7.50388 4.12535 7.87466C4.49612 8.24543 4.96851 8.49793 5.48278 8.60022C5.99706 8.70252 6.53012 8.65002 7.01456 8.44936C7.49899 8.2487 7.91305 7.90889 8.20436 7.47291C8.49567 7.03693 8.65116 6.52435 8.65116 6C8.65116 5.29687 8.37184 4.62253 7.87466 4.12535C7.37747 3.62816 6.70313 3.34884 6 3.34884ZM6 7.81395C5.64123 7.81395 5.29052 7.70757 4.99222 7.50825C4.69392 7.30893 4.46142 7.02563 4.32413 6.69417C4.18683 6.36271 4.15091 5.99799 4.2209 5.64612C4.29089 5.29424 4.46366 4.97103 4.71734 4.71734C4.97103 4.46366 5.29424 4.29089 5.64612 4.2209C5.99799 4.15091 6.36271 4.18683 6.69417 4.32413C7.02563 4.46142 7.30893 4.69392 7.50825 4.99222C7.70757 5.29052 7.81395 5.64123 7.81395 6C7.81395 6.48109 7.62284 6.94248 7.28266 7.28266C6.94248 7.62284 6.48109 7.81395 6 7.81395ZM6 0C4.40927 0.00184647 2.88422 0.634581 1.7594 1.7594C0.634581 2.88422 0.00184647 4.40927 0 6C0 8.15651 1.00047 10.447 2.89326 12.6237C3.74757 13.611 4.70906 14.5002 5.76 15.2749C5.83035 15.3241 5.91414 15.3505 6 15.3505C6.08586 15.3505 6.16965 15.3241 6.24 15.2749C7.29094 14.5002 8.25243 13.611 9.10674 12.6237C10.9995 10.447 12 8.15861 12 6C11.9982 4.40927 11.3654 2.88422 10.2406 1.7594C9.11578 0.634581 7.59073 0.00184647 6 0ZM6 14.4077C4.95349 13.5998 0.837209 10.1595 0.837209 6C0.837209 4.63074 1.38114 3.31757 2.34936 2.34936C3.31757 1.38114 4.63074 0.837209 6 0.837209C7.36926 0.837209 8.68243 1.38114 9.65064 2.34936C10.6189 3.31757 11.1628 4.63074 11.1628 6C11.1628 10.1595 7.04651 13.5998 6 14.4077Z" fill="#0A66C2"/>
</svg>
