<svg version="1.1" id="Layer_1" xmlns="http://www.w3.org/2000/svg" xmlns:xlink="http://www.w3.org/1999/xlink" x="0px" y="0px"
	 width="100%" viewBox="0 0 512 512" enable-background="new 0 0 512 512" xml:space="preserve">

<path fill="#96592F" opacity="1.000000" stroke="none" 
	d="
M102.749634,312.053375 
	C109.290848,286.791321 115.998482,261.570831 122.319077,236.253708 
	C127.128296,216.990341 131.302383,197.569077 136.027557,178.283859 
	C139.808929,162.850525 146.934280,149.022110 157.461517,137.070618 
	C170.789291,121.939674 184.270462,106.943916 197.624176,91.835678 
	C200.787582,88.256653 203.662552,84.424408 206.747131,80.773651 
	C214.353241,71.771454 224.876022,68.391838 235.854752,68.237473 
	C252.230469,68.007240 268.626495,69.399406 285.017334,70.008011 
	C298.287567,70.500748 307.659637,77.152596 315.428986,87.555252 
	C321.156036,95.223419 328.232513,101.873344 334.564178,109.102661 
	C345.334015,121.399345 355.125397,134.711029 366.948303,145.881134 
	C377.904999,156.232834 378.245026,169.132919 379.944763,182.023331 
	C382.972717,204.987137 385.633759,227.939331 392.475922,250.263031 
	C399.546021,273.330505 405.506805,296.737335 412.009613,319.979858 
	C413.158813,324.087311 414.586365,328.116882 415.567505,332.411011 
	C409.791595,327.695892 404.205414,322.884460 398.918365,317.764160 
	C395.080627,314.047516 391.638794,309.921997 388.000122,305.823303 
	C387.820618,305.549927 387.661377,305.431976 387.502167,305.314056 
	C387.662506,305.546173 387.822815,305.778290 388.011108,306.383728 
	C392.883911,320.046722 400.232910,331.933533 409.320160,342.625488 
	C413.854034,347.960022 419.590851,352.272186 424.783539,357.046783 
	C436.011139,371.517578 441.406525,387.891479 441.029938,406.219940 
	C440.924866,411.333160 437.539154,414.205933 434.236053,417.168030 
	C425.623291,424.891632 416.294189,431.938873 408.474060,440.388031 
	C401.254761,448.187988 393.073059,447.038269 386.527222,443.506622 
	C381.278992,440.675079 376.191406,436.517792 372.669067,431.741852 
	C366.461029,423.324310 357.917145,419.811249 348.490082,419.276459 
	C339.016541,418.738983 329.258057,419.492645 319.934448,421.289246 
	C313.149628,422.596680 306.864594,426.509949 300.364288,429.279144 
	C289.676270,433.832214 278.510864,436.053467 266.940155,437.082184 
	C240.234970,439.456482 216.016006,431.565125 192.432846,420.256622 
	C182.079391,415.291962 171.076462,415.292297 160.236435,418.427979 
	C147.423798,422.134216 135.975662,428.422485 125.970718,437.448181 
	C120.179893,442.672180 112.663673,442.390656 106.357285,439.402374 
	C98.448944,435.654999 91.073494,430.554321 84.043343,425.272064 
	C80.119843,422.324066 75.419174,418.231323 74.517021,413.931061 
	C73.009491,406.744995 72.830032,398.608337 74.658363,391.535309 
	C78.384773,377.119568 83.782585,363.132751 88.601555,349.006653 
	C89.171089,347.337158 90.427071,345.901855 91.992142,344.105835 
	C93.819946,342.998505 95.208939,342.318909 96.193283,341.262360 
	C118.528572,317.288635 131.900803,288.770325 138.756470,256.974701 
	C138.773422,256.896149 138.315857,256.715240 138.640244,256.898224 
	C130.927353,271.002930 123.587814,285.337708 115.299522,299.101166 
	C112.278221,304.118317 106.998825,307.775635 102.749634,312.053375 
M181.392410,251.468246 
	C180.379135,254.263931 179.307907,257.040161 178.362579,259.858643 
	C174.167007,272.367371 170.007553,284.888245 165.307190,297.934265 
	C160.113220,311.297363 154.919250,324.660431 149.342804,338.580872 
	C140.439667,359.553345 131.478546,380.501617 122.695801,401.524384 
	C121.376228,404.682953 117.850342,408.789062 121.638611,411.351257 
	C123.747131,412.777313 128.459015,411.178040 131.661392,410.015778 
	C143.529724,405.708496 155.184296,400.809723 167.068665,396.550232 
	C173.597321,394.210297 180.424591,392.703491 187.703842,391.157013 
	C196.273010,399.393829 204.842194,407.630646 213.772247,416.214355 
	C214.919235,413.458008 215.781586,411.385681 216.229950,410.308197 
	C228.009857,415.349426 239.578232,420.219055 251.065002,425.274139 
	C253.860855,426.504547 255.252747,426.015015 257.081512,423.438568 
	C263.171356,414.858948 272.237427,410.587006 283.067169,406.215485 
	C281.898010,411.659698 281.023956,415.729736 280.000305,420.496368 
	C291.436951,415.763336 301.993744,410.354980 307.378815,399.443573 
	C311.044250,392.016541 316.910034,386.915009 322.589203,381.327911 
	C323.221436,381.516327 323.859009,381.885406 324.485077,381.866760 
	C339.522614,381.419464 351.707245,388.036987 362.913147,397.209167 
	C368.944641,402.146057 374.965973,407.117737 381.280518,411.673676 
	C383.321381,413.146149 386.281097,413.345123 388.820435,414.126678 
	C388.341492,411.482239 388.352936,408.620758 387.295898,406.232117 
	C383.400635,397.429779 378.982147,388.859253 375.076324,380.061279 
	C369.622284,367.775848 364.451752,355.364563 359.090332,342.226776 
	C356.690460,335.149109 354.383911,328.037994 351.864166,321.003265 
	C349.410004,314.151642 346.737701,307.378143 344.170807,299.823639 
	C333.676514,274.694214 323.466522,249.439621 312.496185,224.519745 
	C309.604034,217.949982 304.700195,212.143814 300.136932,206.454773 
	C286.875183,189.921432 270.060059,181.137009 248.239868,181.683533 
	C228.396881,182.180511 212.134827,189.386093 201.754593,206.042389 
	C194.630585,217.473709 190.258011,230.619766 184.206436,243.499268 
	C183.420074,245.971634 182.633713,248.444000 181.392410,251.468246 
M386.472931,302.503632 
	C386.472931,302.503632 386.513824,302.487640 386.472931,302.503632 
z"/>
<path fill="#7D4823" opacity="1.000000" stroke="none" 
	d="
M102.490387,312.312500 
	C106.998825,307.775635 112.278221,304.118317 115.299522,299.101166 
	C123.587814,285.337708 130.927353,271.002930 138.640244,256.898224 
	C138.315857,256.715240 138.773422,256.896149 138.756470,256.974701 
	C131.900803,288.770325 118.528572,317.288635 96.193283,341.262360 
	C95.208939,342.318909 93.819946,342.998505 92.277786,343.911682 
	C95.367813,333.503693 98.799477,323.037659 102.490387,312.312500 
z"/>
<path fill="#7D4823" opacity="1.000000" stroke="none" 
	d="
M388.020447,305.978760 
	C391.638794,309.921997 395.080627,314.047516 398.918365,317.764160 
	C404.205414,322.884460 409.791595,327.695892 415.545319,332.786743 
	C418.849915,340.725067 421.858856,348.516266 424.825684,356.677124 
	C419.590851,352.272186 413.854034,347.960022 409.320160,342.625488 
	C400.232910,331.933533 392.883911,320.046722 388.020935,306.376984 
	C388.002777,305.996887 388.020447,305.978760 388.020447,305.978760 
z"/>
<path fill="#F4F3F3" opacity="1.000000" stroke="none" 
	d="
M321.900635,380.856506 
	C316.910034,386.915009 311.044250,392.016541 307.378815,399.443573 
	C301.993744,410.354980 291.436951,415.763336 280.000305,420.496368 
	C281.023956,415.729736 281.898010,411.659698 283.067169,406.215485 
	C272.237427,410.587006 263.171356,414.858948 257.081512,423.438568 
	C255.252747,426.015015 253.860855,426.504547 251.065002,425.274139 
	C239.578232,420.219055 228.009857,415.349426 216.229950,410.308197 
	C215.781586,411.385681 214.919235,413.458008 213.772247,416.214355 
	C204.842194,407.630646 196.273010,399.393829 187.303650,390.667358 
	C184.567413,386.739349 182.239197,383.295624 179.893280,379.864014 
	C177.139008,375.835083 175.706314,369.783905 167.817780,373.541809 
	C168.796204,360.995972 164.926910,351.410248 156.076401,343.782959 
	C156.903763,341.756439 157.639877,340.087708 158.242523,338.372131 
	C162.512192,326.217316 166.754532,314.052917 171.241379,301.876923 
	C171.477188,301.862274 171.948395,301.826721 172.249832,302.016876 
	C177.733444,305.183594 182.955643,308.093658 188.074814,311.174896 
	C189.736801,312.175232 192.445343,313.637482 192.431992,314.864075 
	C192.343933,322.960999 199.494751,323.057709 204.064743,325.887451 
	C205.133545,326.549225 207.180649,326.726868 208.233047,326.143951 
	C215.911072,321.891418 223.450012,317.387817 231.285904,313.094482 
	C232.081253,313.752228 232.623566,314.279022 233.115829,315.225830 
	C232.493011,319.145538 233.706055,321.599213 236.767303,323.624573 
	C241.203934,326.559967 245.157410,330.244263 249.673584,333.031189 
	C251.408722,334.101959 254.471390,334.412506 256.323853,333.632324 
	C261.213928,331.572784 265.671326,328.509735 270.492645,326.256256 
	C275.040863,324.130432 277.973206,321.574951 275.671448,316.114136 
	C275.627686,316.010254 276.087952,315.693939 277.006744,314.807434 
	C289.233398,324.757477 303.134003,329.266998 319.567383,324.290161 
	C316.361664,320.369659 317.975250,318.270782 321.453522,316.283020 
	C327.087128,313.063507 332.494171,309.447571 338.153656,306.324371 
	C342.846588,319.166870 347.336914,331.701019 351.971405,344.181671 
	C352.619171,345.926117 353.975098,347.407562 354.938354,349.355713 
	C351.578705,355.382050 348.283936,361.063446 344.888031,366.919250 
	C342.230072,365.982117 339.851288,365.344788 337.655060,364.317200 
	C335.004639,363.077148 333.584534,363.912750 332.073425,366.257446 
	C328.862427,371.239746 325.311981,376.003296 321.900635,380.856506 
M271.590118,365.726135 
	C273.783051,367.497345 275.816254,369.554108 278.241241,370.910370 
	C279.332001,371.520386 281.566040,371.210449 282.608917,370.425079 
	C283.439667,369.799438 283.806274,367.631317 283.415710,366.472656 
	C281.841980,361.804016 271.538513,354.959747 266.473419,354.944580 
	C258.156860,354.919647 249.812912,355.356201 241.531219,354.817871 
	C233.328247,354.284637 226.212387,356.166687 219.615509,361.028076 
	C217.083755,362.893768 214.806198,364.532654 216.689606,367.776459 
	C218.608368,371.081146 221.291870,369.655975 223.491547,367.970154 
	C229.062103,363.700958 235.262421,362.447723 242.196701,362.847992 
	C249.491089,363.269073 256.835785,362.761108 264.142975,363.051239 
	C266.447021,363.142761 268.700897,364.498413 271.590118,365.726135 
M263.790863,379.595123 
	C265.374298,375.454956 263.102448,374.065125 259.542145,374.003479 
	C252.587189,373.883026 245.616074,373.733978 238.680267,374.116180 
	C236.851974,374.216919 235.128281,376.216034 233.356537,377.343384 
	C235.048889,378.856110 236.658005,381.547516 238.448242,381.673889 
	C245.534012,382.174164 252.678223,381.948029 259.796295,381.789978 
	C260.973724,381.763794 262.128876,380.732910 263.790863,379.595123 
z"/>
<path fill="#DFC2AB" opacity="1.000000" stroke="none" 
	d="
M184.655548,242.999329 
	C190.258011,230.619766 194.630585,217.473709 201.754593,206.042389 
	C212.134827,189.386093 228.396881,182.180511 248.239868,181.683533 
	C270.060059,181.137009 286.875183,189.921432 300.136932,206.454773 
	C304.700195,212.143814 309.604034,217.949982 312.496185,224.519745 
	C323.466522,249.439621 333.676514,274.694214 344.002075,300.519440 
	C341.903900,302.497650 339.974426,303.780029 337.880615,304.737732 
	C334.013031,295.340424 330.310913,286.267334 326.606232,277.195312 
	C323.726898,270.144440 320.844452,263.094818 318.380554,256.016541 
	C320.570160,255.902145 322.342621,255.815842 324.121582,255.729233 
	C323.614105,248.304871 320.441864,246.081238 313.474365,248.112656 
	C314.324615,250.408051 315.171478,252.694366 315.549744,255.000153 
	C300.515137,254.613586 286.219818,256.459229 272.154846,260.198090 
	C269.179718,260.988953 265.737823,262.032715 264.505310,258.175781 
	C263.089569,253.745483 267.091003,252.889069 270.051788,252.202301 
	C277.002686,250.590012 283.999176,249.053329 291.058228,248.063690 
	C297.703033,247.132141 304.451508,246.940399 312.585022,246.312790 
	C307.630585,239.627121 303.531830,233.658264 298.992004,228.046204 
	C280.061005,204.644211 255.188416,200.030487 227.991638,208.193726 
	C211.104660,213.262436 201.087372,226.401306 193.853394,242.099518 
	C193.430908,242.430603 193.220016,242.649734 192.577362,242.899384 
	C189.630630,242.935440 187.143082,242.967377 184.655548,242.999329 
z"/>
<path fill="#7D4824" opacity="1.000000" stroke="none" 
	d="
M155.923370,344.119110 
	C164.926910,351.410248 168.796204,360.995972 167.817780,373.541809 
	C175.706314,369.783905 177.139008,375.835083 179.893280,379.864014 
	C182.239197,383.295624 184.567413,386.739349 187.010345,390.499359 
	C180.424591,392.703491 173.597321,394.210297 167.068665,396.550232 
	C155.184296,400.809723 143.529724,405.708496 131.661392,410.015778 
	C128.459015,411.178040 123.747131,412.777313 121.638611,411.351257 
	C117.850342,408.789062 121.376228,404.682953 122.695801,401.524384 
	C131.478546,380.501617 140.439667,359.553345 149.738983,338.572540 
	C152.064560,340.415863 153.993958,342.267487 155.923370,344.119110 
z"/>
<path fill="#7D4824" opacity="1.000000" stroke="none" 
	d="
M322.244934,381.092224 
	C325.311981,376.003296 328.862427,371.239746 332.073425,366.257446 
	C333.584534,363.912750 335.004639,363.077148 337.655060,364.317200 
	C339.851288,365.344788 342.230072,365.982117 344.888031,366.919250 
	C348.283936,361.063446 351.578705,355.382050 355.226379,349.188904 
	C356.772827,346.787140 357.966370,344.897125 359.159912,343.007111 
	C364.451752,355.364563 369.622284,367.775848 375.076324,380.061279 
	C378.982147,388.859253 383.400635,397.429779 387.295898,406.232117 
	C388.352936,408.620758 388.341492,411.482239 388.820435,414.126678 
	C386.281097,413.345123 383.321381,413.146149 381.280518,411.673676 
	C374.965973,407.117737 368.944641,402.146057 362.913147,397.209167 
	C351.707245,388.036987 339.522614,381.419464 324.485077,381.866760 
	C323.859009,381.885406 323.221436,381.516327 322.244934,381.092224 
z"/>
<path fill="#E0C3AB" opacity="1.000000" stroke="none" 
	d="
M171.948395,301.826721 
	C171.948395,301.826721 171.477188,301.862274 171.045578,301.608002 
	C169.020996,300.037384 167.428024,298.721039 165.835037,297.404724 
	C170.007553,284.888245 174.167007,272.367371 178.362579,259.858643 
	C179.307907,257.040161 180.379135,254.263931 182.073303,251.235199 
	C185.159561,250.989761 187.564911,250.977371 189.902695,251.329071 
	C183.872879,268.404327 177.910645,285.115540 171.948395,301.826721 
z"/>
<path fill="#DBDAD9" opacity="1.000000" stroke="none" 
	d="
M165.571106,297.669495 
	C167.428024,298.721039 169.020996,300.037384 170.809769,301.622650 
	C166.754532,314.052917 162.512192,326.217316 158.242523,338.372131 
	C157.639877,340.087708 156.903763,341.756439 156.076385,343.782959 
	C153.993958,342.267487 152.064560,340.415863 149.930222,338.293884 
	C154.919250,324.660431 160.113220,311.297363 165.571106,297.669495 
z"/>
<path fill="#DBDAD9" opacity="1.000000" stroke="none" 
	d="
M359.125122,342.616943 
	C357.966370,344.897125 356.772827,346.787140 355.291229,348.843964 
	C353.975098,347.407562 352.619171,345.926117 351.971405,344.181671 
	C347.336914,331.701019 342.846588,319.166870 338.165894,306.090240 
	C338.021362,305.530762 338.044952,305.062439 338.044952,305.062439 
	C339.974426,303.780029 341.903900,302.497650 343.997253,300.892792 
	C346.737701,307.378143 349.410004,314.151642 351.864166,321.003265 
	C354.383911,328.037994 356.690460,335.149109 359.125122,342.616943 
z"/>
<path fill="#C3A693" opacity="1.000000" stroke="none" 
	d="
M189.970261,250.964996 
	C187.564911,250.977371 185.159561,250.989761 182.300781,250.959259 
	C182.633713,248.444000 183.420074,245.971634 184.431000,243.249298 
	C187.143082,242.967377 189.630630,242.935440 192.504944,243.269836 
	C192.271667,245.775238 191.651611,247.914322 190.845612,250.194702 
	C190.413025,250.527252 190.183228,250.736908 189.970261,250.964996 
z"/>
<path fill="#7D4823" opacity="1.000000" stroke="none" 
	d="
M387.992950,306.003662 
	C387.822815,305.778290 387.662506,305.546173 387.502167,305.314056 
	C387.661377,305.431976 387.820618,305.549927 388.000122,305.823303 
	C388.020447,305.978760 388.002777,305.996887 387.992950,306.003662 
z"/>
<path fill="#7D4823" opacity="1.000000" stroke="none" 
	d="
M386.493378,302.495636 
	C386.513824,302.487640 386.472931,302.503632 386.493378,302.495636 
z"/>
<path fill="#F9D9C0" opacity="1.000000" stroke="none" 
	d="
M337.880615,304.737732 
	C338.044952,305.062439 338.021362,305.530762 338.009125,305.764893 
	C332.494171,309.447571 327.087128,313.063507 321.453522,316.283020 
	C317.975250,318.270782 316.361664,320.369659 319.567383,324.290161 
	C303.134003,329.266998 289.233398,324.757477 277.006744,314.807434 
	C276.087952,315.693939 275.627686,316.010254 275.671448,316.114136 
	C277.973206,321.574951 275.040863,324.130432 270.492645,326.256256 
	C265.671326,328.509735 261.213928,331.572784 256.323853,333.632324 
	C254.471390,334.412506 251.408722,334.101959 249.673584,333.031189 
	C245.157410,330.244263 241.203934,326.559967 236.767303,323.624573 
	C233.706055,321.599213 232.493011,319.145538 233.458221,315.226837 
	C235.268646,314.030304 237.352219,313.611115 237.995224,312.416504 
	C241.818405,305.313751 247.041077,298.356812 248.473114,290.727600 
	C250.276718,281.118744 249.409088,270.876190 248.735367,260.972229 
	C248.075424,251.270721 244.199387,247.054108 234.677917,245.804474 
	C221.195236,244.034988 207.590256,243.197159 194.037552,241.961151 
	C201.087372,226.401306 211.104660,213.262436 227.991638,208.193726 
	C255.188416,200.030487 280.061005,204.644211 298.992004,228.046204 
	C303.531830,233.658264 307.630585,239.627121 312.585022,246.312790 
	C304.451508,246.940399 297.703033,247.132141 291.058228,248.063690 
	C283.999176,249.053329 277.002686,250.590012 270.051788,252.202301 
	C267.091003,252.889069 263.089569,253.745483 264.505310,258.175781 
	C265.737823,262.032715 269.179718,260.988953 272.154846,260.198090 
	C286.219818,256.459229 300.515137,254.613586 315.800690,255.118256 
	C317.001343,255.492798 317.482361,255.768723 317.963409,256.044647 
	C320.844452,263.094818 323.726898,270.144440 326.606232,277.195312 
	C330.310913,286.267334 334.013031,295.340424 337.880615,304.737732 
z"/>
<path fill="#F9D9C0" opacity="1.000000" stroke="none" 
	d="
M189.902695,251.329071 
	C190.183228,250.736908 190.413025,250.527252 191.311142,250.197739 
	C202.904694,250.700363 213.970016,250.531509 224.759766,252.173447 
	C240.645462,254.590851 239.881622,252.064545 241.470993,268.568481 
	C242.759796,281.951324 241.912292,295.190002 233.015594,306.554382 
	C231.727493,308.199738 231.663361,310.803314 231.032867,312.963470 
	C223.450012,317.387817 215.911072,321.891418 208.233047,326.143951 
	C207.180649,326.726868 205.133545,326.549225 204.064743,325.887451 
	C199.494751,323.057709 192.343933,322.960999 192.431992,314.864075 
	C192.445343,313.637482 189.736801,312.175232 188.074814,311.174896 
	C182.955643,308.093658 177.733444,305.183594 172.249832,302.016876 
	C177.910645,285.115540 183.872879,268.404327 189.902695,251.329071 
z"/>
<path fill="#D7B7A2" opacity="1.000000" stroke="none" 
	d="
M231.285904,313.094482 
	C231.663361,310.803314 231.727493,308.199738 233.015594,306.554382 
	C241.912292,295.190002 242.759796,281.951324 241.470993,268.568481 
	C239.881622,252.064545 240.645462,254.590851 224.759766,252.173447 
	C213.970016,250.531509 202.904694,250.700363 191.497086,250.056427 
	C191.651611,247.914322 192.271667,245.775238 192.964142,243.265717 
	C193.220016,242.649734 193.430908,242.430603 193.853394,242.099503 
	C207.590256,243.197159 221.195236,244.034988 234.677917,245.804474 
	C244.199387,247.054108 248.075424,251.270721 248.735367,260.972229 
	C249.409088,270.876190 250.276718,281.118744 248.473114,290.727600 
	C247.041077,298.356812 241.818405,305.313751 237.995224,312.416504 
	C237.352219,313.611115 235.268646,314.030304 233.508270,314.806763 
	C232.623566,314.279022 232.081253,313.752228 231.285904,313.094482 
z"/>
<path fill="#D9D7D7" opacity="1.000000" stroke="none" 
	d="
M271.283936,365.500824 
	C268.700897,364.498413 266.447021,363.142761 264.142975,363.051239 
	C256.835785,362.761108 249.491089,363.269073 242.196701,362.847992 
	C235.262421,362.447723 229.062103,363.700958 223.491547,367.970154 
	C221.291870,369.655975 218.608368,371.081146 216.689606,367.776459 
	C214.806198,364.532654 217.083755,362.893768 219.615509,361.028076 
	C226.212387,356.166687 233.328247,354.284637 241.531219,354.817871 
	C249.812912,355.356201 258.156860,354.919647 266.473419,354.944580 
	C271.538513,354.959747 281.841980,361.804016 283.415710,366.472656 
	C283.806274,367.631317 283.439667,369.799438 282.608917,370.425079 
	C281.566040,371.210449 279.332001,371.520386 278.241241,370.910370 
	C275.816254,369.554108 273.783051,367.497345 271.283936,365.500824 
z"/>
<path fill="#DAD8D8" opacity="1.000000" stroke="none" 
	d="
M263.542603,379.880737 
	C262.128876,380.732910 260.973724,381.763794 259.796295,381.789978 
	C252.678223,381.948029 245.534012,382.174164 238.448242,381.673889 
	C236.658005,381.547516 235.048889,378.856110 233.356537,377.343384 
	C235.128281,376.216034 236.851974,374.216919 238.680267,374.116180 
	C245.616074,373.733978 252.587189,373.883026 259.542145,374.003479 
	C263.102448,374.065125 265.374298,375.454956 263.542603,379.880737 
z"/>
<path fill="#C3A693" opacity="1.000000" stroke="none" 
	d="
M318.380554,256.016541 
	C317.482361,255.768723 317.001343,255.492798 316.269348,255.098785 
	C315.171478,252.694366 314.324615,250.408051 313.474365,248.112656 
	C320.441864,246.081238 323.614105,248.304871 324.121582,255.729233 
	C322.342621,255.815842 320.570160,255.902145 318.380554,256.016541 
z"/>
</svg>