<svg xmlns="http://www.w3.org/2000/svg" xmlns:xlink="http://www.w3.org/1999/xlink">

<symbol id="dots" width="40" height="40" viewBox="0 0 40 40" fill="none">

	<g>
		<rect width="40" height="40" fill="white"/>
		<path d="M9 20C9 18.8954 9.89543 18 11 18C12.1046 18 13 18.8954 13 20C13 21.1046 12.1046 22 11 22C9.89543 22 9 21.1046 9 20Z" fill="#9747FF"/>
		<path d="M18 20C18 18.8954 18.8954 18 20 18C21.1046 18 22 18.8954 22 20C22 21.1046 21.1046 22 20 22C18.8954 22 18 21.1046 18 20Z" fill="#9747FF"/>
	<path d="M27 20C27 18.8954 27.8954 18 29 18C30.1046 18 31 18.8954 31 20C31 21.1046 30.1046 22 29 22C27.8954 22 27 21.1046 27 20Z" fill="#9747FF"/>

</g>
</symbol>


    <symbol id="bookmark" width="18" height="23" viewBox="0 0 18 23" fill="none">
        <g>
            <path d="M8.42479 15.5228L1.05882 20.289V6.35294C1.05882 4.82561 1.06107 3.78662 1.16568 3.00858C1.26619 2.26099 1.4434 1.91473 1.67907 1.67907C1.91473 1.4434 2.26099 1.26619 3.00858 1.16568C3.78662 1.06107 4.82561 1.05882 6.35294 1.05882H11.6471C13.1744 1.05882 14.2134 1.06107 14.9914 1.16568C15.739 1.26619 16.0853 1.4434 16.3209 1.67907C16.5566 1.91473 16.7338 2.26099 16.8343 3.00858C16.9389 3.78662 16.9412 4.82561 16.9412 6.35294V20.289L9.57521 15.5228L9 15.1506L8.42479 15.5228Z"
                  stroke="#9747FF" stroke-width="2.11765"/>

        </g>
    </symbol>
    <symbol id="send" width="17" height="17" >
        <g><path d="M16.648 7.948L.863.663a.61.61 0 00-.727.17.604.604 0 00-.014.745L5.312 8.5l-5.19 6.922a.605.605 0 00.74.915l15.785-7.285a.606.606 0 000-1.103z" fill="#fff"/>
        </g>
    </symbol>

    <symbol id="bookmark_fill" width="20" height="20" viewBox="0 0 20 20" fill="none">
        <g>
            <path d="M8.42479 15.5228L1.05882 20.289V6.35294C1.05882 4.82561 1.06107 3.78662 1.16568 3.00858C1.26619 2.26099 1.4434 1.91473 1.67907 1.67907C1.91473 1.4434 2.26099 1.26619 3.00858 1.16568C3.78662 1.06107 4.82561 1.05882 6.35294 1.05882H11.6471C13.1744 1.05882 14.2134 1.06107 14.9914 1.16568C15.739 1.26619 16.0853 1.4434 16.3209 1.67907C16.5566 1.91473 16.7338 2.26099 16.8343 3.00858C16.9389 3.78662 16.9412 4.82561 16.9412 6.35294V20.289L9.57521 15.5228L9 15.1506L8.42479 15.5228Z"
                  fill="#9747FF" stroke="#9747FF" stroke-width="2.11765"/>
        </g>
    </symbol>
    <symbol id="user" width="20" height="20" viewBox="0 0 20 20" fill="none">
        <g>
            <g clip-path="url(#clip0_73_1832)">
                <path d="M10 10C12.5642 10 14.6429 7.92133 14.6429 5.35715C14.6429 2.79297 12.5642 0.714294 10 0.714294C7.43586 0.714294 5.35718 2.79297 5.35718 5.35715C5.35718 7.92133 7.43586 10 10 10Z" stroke="#9747FF" stroke-linecap="round" stroke-linejoin="round"/>
                <path d="M18.8286 19.2857C18.2288 17.4155 17.0507 15.7841 15.464 14.6266C13.8773 13.4692 11.964 12.8455 10 12.8455C8.03601 12.8455 6.12274 13.4692 4.53604 14.6266C2.94934 15.7841 1.77119 17.4155 1.17145 19.2857H18.8286Z" stroke="#9747FF" stroke-linecap="round" stroke-linejoin="round"/>
            </g>
            <defs>
                <clipPath id="clip0_73_1832">
                    <rect width="20" height="20" fill="white"/>
                </clipPath>
            </defs>
        </g>
    </symbol>
    <symbol id="share" width="24" height="24" viewBox="0 0 24 24" fill="none">
        <g>

            <path d="M8.68439 10.6578L15.3125 7.34375M15.3156 16.6578L8.6938 13.3469M21 6C21 7.65685 19.6569 9 18 9C16.3431 9 15 7.65685 15 6C15 4.34315 16.3431 3 18 3C19.6569 3 21 4.34315 21 6ZM9 12C9 13.6569 7.65685 15 6 15C4.34315 15 3 13.6569 3 12C3 10.3431 4.34315 9 6 9C7.65685 9 9 10.3431 9 12ZM21 18C21 19.6569 19.6569 21 18 21C16.3431 21 15 19.6569 15 18C15 16.3431 16.3431 15 18 15C19.6569 15 21 16.3431 21 18Z"
                  stroke="#9747FF" stroke-width="1.5"/>

        </g>
    </symbol>

    <symbol id="groups" width="24" height="24" viewBox="0 0 24 24" fill="none">
        <g>

            <path d="M3 19H1V18C1 16.1362 2.27477 14.57 4 14.126M6 10.8293C4.83481 10.4175 4 9.30623 4 8.00001C4 6.69379 4.83481 5.58255 6 5.17072M21 19H23V18C23 16.1362 21.7252 14.57 20 14.126M18 5.17072C19.1652 5.58255 20 6.69379 20 8.00001C20 9.30623 19.1652 10.4175 18 10.8293M10 14H14C16.2091 14 18 15.7909 18 18V19H6V18C6 15.7909 7.79086 14 10 14ZM15 8C15 9.65685 13.6569 11 12 11C10.3431 11 9 9.65685 9 8C9 6.34315 10.3431 5 12 5C13.6569 5 15 6.34315 15 8Z"
                  stroke="#9747FF" stroke-width="1.5" stroke-linecap="round" stroke-linejoin="round"/>

        </g>
    </symbol>

    <symbol id="settings" width="24" height="24" viewBox="0 0 24 24" fill="none">
        <g>

            <path d="M14.1361 3.36144L15.1312 3.26194L15.1312 3.26194L14.1361 3.36144ZM13.9838 2.54161L13.095 3L13.095 3L13.9838 2.54161ZM14.4311 4.81793L15.2261 4.21141L15.2261 4.2114L14.4311 4.81793ZM15.3595 5.20248L15.2261 4.21141L15.2261 4.21141L15.3595 5.20248ZM16.5979 4.38113L17.2311 5.15509L17.2311 5.15509L16.5979 4.38113ZM17.2853 3.90918L17.5896 4.86175L17.5896 4.86175L17.2853 3.90918ZM17.9872 3.94419L18.3848 3.02663L18.3848 3.02663L17.9872 3.94419ZM18.6243 4.4822L17.9172 5.1893L17.9172 5.18931L18.6243 4.4822ZM19.5178 5.37567L20.2249 4.66856L20.2249 4.66856L19.5178 5.37567ZM20.0558 6.01275L20.9733 5.61517L20.9733 5.61516L20.0558 6.01275ZM20.0908 6.71464L21.0434 7.01895L21.0434 7.01894L20.0908 6.71464ZM19.6188 7.4021L18.8449 6.76886L18.8449 6.76886L19.6188 7.4021ZM18.7975 8.64056L17.8064 8.50724L17.8064 8.50725L18.7975 8.64056ZM19.182 9.56893L18.5755 10.364L18.5755 10.364L19.182 9.56893ZM20.6385 9.86385L20.738 8.86882L20.738 8.86882L20.6385 9.86385ZM21.4584 10.0162L21.9168 9.1275L21.9168 9.1275L21.4584 10.0162ZM21.9299 10.5373L22.8599 10.1696L22.8599 10.1696L21.9299 10.5373ZM21.93 13.4626L21 13.095L21 13.095L21.93 13.4626ZM21.4583 13.9838L21.9166 14.8726L21.9166 14.8726L21.4583 13.9838ZM20.6386 14.1361L20.5391 13.1411L20.5065 13.1444L20.4742 13.1497L20.6386 14.1361ZM20.6386 14.1361L20.7381 15.1312L20.7707 15.1279L20.803 15.1225L20.6386 14.1361ZM19.1825 14.4309L18.5762 13.6357L18.5762 13.6357L19.1825 14.4309ZM18.7979 15.3596L17.8068 15.4931L17.8068 15.4931L18.7979 15.3596ZM19.619 16.5976L18.845 17.2308L18.845 17.2308L19.619 16.5976ZM20.0908 17.2848L19.1383 17.5892L19.1383 17.5892L20.0908 17.2848ZM20.0558 17.9869L19.1383 17.5892L19.1383 17.5892L20.0558 17.9869ZM19.5179 18.6238L20.225 19.3309L20.225 19.3309L19.5179 18.6238ZM18.6243 19.5174L17.9172 18.8102L17.9172 18.8103L18.6243 19.5174ZM17.9873 20.0554L18.3849 20.9729L18.3849 20.9729L17.9873 20.0554ZM17.2854 20.0904L16.981 21.0429L16.981 21.0429L17.2854 20.0904ZM16.5979 19.6184L17.2312 18.8444L17.2226 18.8376L16.5979 19.6184ZM16.5979 19.6184L15.9646 20.3924L15.9732 20.3993L16.5979 19.6184ZM15.3595 18.7971L15.4928 17.806L15.4928 17.806L15.3595 18.7971ZM14.4311 19.1816L15.2262 19.7882L15.2262 19.7881L14.4311 19.1816ZM14.1362 20.6383L13.1411 20.5388L13.1411 20.5388L14.1362 20.6383ZM13.9837 21.4585L13.095 21L13.095 21L13.9837 21.4585ZM13.4628 21.9299L13.095 21L13.095 21L13.4628 21.9299ZM10.5373 21.9299L10.905 21L10.905 21L10.5373 21.9299ZM10.0162 21.4584L10.905 21L10.905 21L10.0162 21.4584ZM9.86385 20.6385L8.86882 20.7381L8.86882 20.7381L9.86385 20.6385ZM9.56892 19.182L8.77387 19.7885L8.77387 19.7885L9.56892 19.182ZM8.64057 18.7975L8.50728 17.8064L8.50727 17.8064L8.64057 18.7975ZM7.40208 19.6189L6.76884 18.8449L6.753 18.8579L6.73771 18.8714L7.40208 19.6189ZM7.40206 19.6189L8.0353 20.3928L8.05113 20.3799L8.06643 20.3663L7.40206 19.6189ZM6.71458 20.0908L7.01887 21.0434L7.01887 21.0434L6.71458 20.0908ZM6.01272 20.0558L5.61515 20.9734L5.61515 20.9734L6.01272 20.0558ZM5.37561 19.5178L6.08271 18.8107L6.08271 18.8107L5.37561 19.5178ZM4.48217 18.6243L3.77506 19.3315L3.77506 19.3315L4.48217 18.6243ZM3.94414 17.9873L4.86171 17.5897L4.86171 17.5897L3.94414 17.9873ZM3.90913 17.2854L4.86171 17.5897L4.86171 17.5897L3.90913 17.2854ZM4.3811 16.5979L5.15506 17.2311L5.15506 17.2311L4.3811 16.5979ZM5.20247 15.3594L6.19355 15.4928L6.19355 15.4928L5.20247 15.3594ZM4.81792 14.4311L5.42445 13.636L5.42445 13.636L4.81792 14.4311ZM3.36143 14.1361L3.26193 15.1312L3.26193 15.1312L3.36143 14.1361ZM2.54161 13.9838L3 13.095L3 13.095L2.54161 13.9838ZM2.07005 13.4627L1.14009 13.8304L1.14009 13.8304L2.07005 13.4627ZM2.07008 10.5372L1.14017 10.1694L1.14017 10.1694L2.07008 10.5372ZM2.54152 10.0163L2.08305 9.12757L2.08305 9.12757L2.54152 10.0163ZM3.36155 9.86384V8.86384H3.31167L3.26205 8.86881L3.36155 9.86384ZM3.36156 9.86384V10.8638H3.41143L3.46106 10.8589L3.36156 9.86384ZM4.81842 9.56881L4.21178 8.77383L4.21177 8.77383L4.81842 9.56881ZM5.20287 8.64066L6.19396 8.50749L6.19396 8.50749L5.20287 8.64066ZM4.38128 7.40182L5.15523 6.76858L5.15523 6.76858L4.38128 7.40182ZM3.90914 6.71405L4.86175 6.40988L4.86175 6.40988L3.90914 6.71405ZM3.94413 6.01243L3.02651 5.61498L3.02651 5.61498L3.94413 6.01243ZM4.48233 5.37509L5.18944 6.0822L5.18944 6.0822L4.48233 5.37509ZM5.37565 4.48177L4.66855 3.77466L4.66855 3.77466L5.37565 4.48177ZM6.01277 3.94373L5.6152 3.02615L5.6152 3.02616L6.01277 3.94373ZM6.71463 3.90872L7.01892 2.95614L7.01892 2.95614L6.71463 3.90872ZM7.4022 4.38076L8.03543 3.60681L8.03543 3.60681L7.4022 4.38076ZM8.64044 5.20207L8.77391 4.21101L8.77391 4.21101L8.64044 5.20207ZM9.56907 4.81742L8.77391 4.21101L8.77391 4.21101L9.56907 4.81742ZM9.86387 3.36131L10.8589 3.46081L10.8589 3.46081L9.86387 3.36131ZM10.0162 2.5417L9.12739 2.08341L9.12739 2.08341L10.0162 2.5417ZM10.5374 2.07001L10.905 3L10.905 3L10.5374 2.07001ZM13.4627 2.07005L13.8304 1.1401L13.8304 1.1401L13.4627 2.07005ZM15.1312 3.26194C15.1108 3.05831 15.0912 2.85693 15.0626 2.6868C15.0324 2.50684 14.9828 2.29705 14.8725 2.08322L13.095 3C13.0721 2.95549 13.0769 2.93878 13.0902 3.01798C13.1052 3.10701 13.1181 3.23089 13.1411 3.46094L15.1312 3.26194ZM15.2261 4.2114C15.2894 4.29433 15.2693 4.33101 15.2342 4.13595C15.2008 3.95045 15.1739 3.68915 15.1312 3.26194L13.1411 3.46094C13.1805 3.85459 13.2152 4.20895 13.2658 4.49017C13.3147 4.76184 13.4009 5.11633 13.636 5.42445L15.2261 4.2114ZM15.2261 4.21141L15.2261 4.21141L13.636 5.42444C14.0718 5.99575 14.7806 6.28935 15.4928 6.19355L15.2261 4.21141ZM15.9646 3.60717C15.6323 3.87905 15.4286 4.04481 15.2738 4.15238C15.1111 4.26548 15.1228 4.22531 15.2261 4.21141L15.4928 6.19355C15.8768 6.14188 16.1885 5.95223 16.4152 5.7947C16.6498 5.63163 16.9249 5.4056 17.2311 5.15509L15.9646 3.60717ZM16.981 2.95661C16.7518 3.02983 16.5684 3.14308 16.4198 3.24897C16.2793 3.34907 16.123 3.47759 15.9646 3.60717L17.2311 5.15509C17.41 5.00869 17.5068 4.93022 17.5803 4.87784C17.6457 4.83124 17.6373 4.84651 17.5896 4.86175L16.981 2.95661ZM18.3848 3.02663C17.9408 2.83421 17.442 2.80934 16.981 2.95661L17.5896 4.86175L17.5896 4.86175L18.3848 3.02663ZM19.3314 3.77509C19.1867 3.6304 19.044 3.48696 18.9142 3.37338C18.7768 3.25323 18.6056 3.12228 18.3848 3.02663L17.5896 4.86175C17.5437 4.84184 17.5369 4.82581 17.5973 4.87869C17.6653 4.93813 17.7537 5.02583 17.9172 5.1893L19.3314 3.77509ZM20.2249 4.66856L19.3314 3.77509L17.9172 5.18931L18.8107 6.08277L20.2249 4.66856ZM20.9733 5.61516C20.8777 5.39441 20.7467 5.22316 20.6266 5.08581C20.513 4.95597 20.3696 4.81326 20.2249 4.66856L18.8107 6.08277C18.9741 6.24626 19.0618 6.33469 19.1213 6.40264C19.1742 6.46308 19.1581 6.45629 19.1382 6.41034L20.9733 5.61516ZM21.0434 7.01894C21.1906 6.55797 21.1658 6.05922 20.9733 5.61517L19.1382 6.41034L19.1382 6.41034L21.0434 7.01894ZM20.3928 8.03534C20.5224 7.87696 20.6509 7.72069 20.751 7.58019C20.8569 7.43156 20.9701 7.24814 21.0434 7.01895L19.1382 6.41033C19.1535 6.36263 19.1687 6.35427 19.1221 6.41968C19.0697 6.4932 18.9913 6.58992 18.8449 6.76886L20.3928 8.03534ZM19.7885 8.77387C19.7746 8.87723 19.7345 8.88894 19.8476 8.72619C19.9551 8.57141 20.1209 8.36764 20.3928 8.03534L18.8449 6.76886C18.5943 7.07506 18.3683 7.35016 18.2052 7.58481C18.0477 7.81148 17.8581 8.12317 17.8064 8.50724L19.7885 8.77387ZM19.7885 8.77387L19.7885 8.77386L17.8064 8.50725C17.7106 9.21938 18.0042 9.92816 18.5755 10.364L19.7885 8.77387ZM20.738 8.86882C20.3108 8.82609 20.0495 8.79922 19.864 8.76584C19.6689 8.73073 19.7056 8.7106 19.7885 8.77387L18.5755 10.364C18.8836 10.599 19.2381 10.6853 19.5098 10.7342C19.791 10.7848 20.1454 10.8195 20.539 10.8589L20.738 8.86882ZM21.9168 9.1275C21.703 9.01721 21.4932 8.96759 21.3132 8.93737C21.1431 8.9088 20.9417 8.88918 20.738 8.86882L20.539 10.8589C20.7691 10.8819 20.893 10.8948 20.982 10.9098C21.0612 10.9231 21.0445 10.9279 21 10.905L21.9168 9.1275ZM22.8599 10.1696C22.682 9.71958 22.3469 9.34933 21.9168 9.1275L21 10.905L21 10.905L22.8599 10.1696ZM23 11.3682C23 11.1636 23.0005 10.9613 22.989 10.7891C22.9769 10.607 22.9484 10.3933 22.8599 10.1696L21 10.905C20.9816 10.8584 20.9881 10.8423 20.9935 10.9224C20.9995 11.0125 21 11.137 21 11.3682H23ZM23 12.6319V11.3682H21V12.6319H23ZM22.86 13.8302C22.9484 13.6065 22.9769 13.3929 22.989 13.2108C23.0005 13.0388 23 12.8365 23 12.6319H21C21 12.863 20.9995 12.9875 20.9935 13.0776C20.9881 13.1577 20.9816 13.1416 21 13.095L22.86 13.8302ZM21.9166 14.8726C22.3469 14.6507 22.682 14.2804 22.86 13.8302L21 13.095L21 13.095L21.9166 14.8726ZM20.7381 15.1312C20.9417 15.1108 21.1431 15.0912 21.3132 15.0626C21.4931 15.0324 21.7028 14.9828 21.9166 14.8726L21 13.095C21.0445 13.0721 21.0612 13.077 20.982 13.0902C20.893 13.1052 20.7691 13.1181 20.5391 13.1411L20.7381 15.1312ZM20.803 15.1225L20.803 15.1225L20.4742 13.1497L20.4742 13.1497L20.803 15.1225ZM19.7889 15.2261C19.706 15.2893 19.6693 15.2692 19.8644 15.2341C20.0498 15.2007 20.311 15.1739 20.7381 15.1312L20.5391 13.1411C20.1456 13.1805 19.7913 13.2151 19.5102 13.2657C19.2386 13.3146 18.8842 13.4008 18.5762 13.6357L19.7889 15.2261ZM19.7889 15.2261L19.7889 15.2261L18.5762 13.6357C18.0046 14.0716 17.7108 14.7807 17.8068 15.4931L19.7889 15.2261ZM20.3929 15.9644C20.1212 15.6322 19.9555 15.4285 19.8479 15.2738C19.7348 15.1111 19.775 15.1228 19.7889 15.2261L17.8068 15.4931C17.8585 15.877 18.0481 16.1886 18.2056 16.4152C18.3686 16.6497 18.5946 16.9247 18.845 17.2308L20.3929 15.9644ZM21.0433 16.9803C20.9701 16.7513 20.8569 16.5679 20.751 16.4193C20.651 16.2789 20.5225 16.1227 20.3929 15.9643L18.845 17.2308C18.9914 17.4097 19.0698 17.5064 19.1222 17.5799C19.1688 17.6453 19.1535 17.6369 19.1383 17.5892L21.0433 16.9803ZM20.9733 18.3846C21.1658 17.9404 21.1907 17.4415 21.0433 16.9803L19.1383 17.5892L19.1383 17.5892L20.9733 18.3846ZM20.225 19.3309C20.3697 19.1862 20.5131 19.0436 20.6266 18.9138C20.7467 18.7765 20.8776 18.6053 20.9733 18.3846L19.1383 17.5892C19.1582 17.5433 19.1742 17.5365 19.1213 17.5969C19.0619 17.6648 18.9742 17.7532 18.8108 17.9167L20.225 19.3309ZM19.3314 20.2245L20.225 19.3309L18.8108 17.9167L17.9172 18.8102L19.3314 20.2245ZM18.3849 20.9729C18.6056 20.8773 18.7769 20.7463 18.9142 20.6262C19.044 20.5126 19.1867 20.3692 19.3314 20.2245L17.9172 18.8103C17.7537 18.9737 17.6653 19.0614 17.5974 19.1209C17.5369 19.1737 17.5437 19.1577 17.5897 19.1378L18.3849 20.9729ZM16.981 21.0429C17.442 21.1902 17.9408 21.1653 18.3849 20.9729L17.5897 19.1378L17.5897 19.1378L16.981 21.0429ZM15.9647 20.3924C16.1231 20.522 16.2793 20.6505 16.4198 20.7506C16.5684 20.8565 16.7519 20.9697 16.981 21.0429L17.5897 19.1378C17.6374 19.153 17.6457 19.1683 17.5803 19.1217C17.5068 19.0693 17.4101 18.9909 17.2312 18.8445L15.9647 20.3924ZM15.9732 20.3993L15.9732 20.3993L17.2226 18.8376L17.2226 18.8375L15.9732 20.3993ZM15.2262 19.7881C15.1228 19.7742 15.1111 19.7341 15.2738 19.8472C15.4286 19.9547 15.6324 20.1205 15.9647 20.3924L17.2311 18.8445C16.925 18.5939 16.6499 18.3679 16.4152 18.2048C16.1886 18.0473 15.8769 17.8577 15.4928 17.806L15.2262 19.7881ZM15.2262 19.7881L15.2262 19.7881L15.4928 17.806C14.7807 17.7102 14.0719 18.0038 13.636 18.5751L15.2262 19.7881ZM15.1312 20.7378C15.1739 20.3105 15.2008 20.0492 15.2342 19.8636C15.2693 19.6685 15.2894 19.7052 15.2262 19.7882L13.636 18.5751C13.401 18.8832 13.3147 19.2378 13.2658 19.5094C13.2152 19.7907 13.1805 20.1451 13.1411 20.5388L15.1312 20.7378ZM14.8724 21.917C14.9828 21.7031 15.0324 21.4932 15.0626 21.3132C15.0912 21.143 15.1108 20.9415 15.1312 20.7378L13.1411 20.5388C13.1181 20.769 13.1052 20.8929 13.0902 20.982C13.0769 21.0612 13.072 21.0445 13.095 21L14.8724 21.917ZM13.8306 22.8598C14.2805 22.6819 14.6506 22.3469 14.8724 21.917L13.095 21L13.095 21L13.8306 22.8598ZM12.6316 23C12.8363 23 13.0387 23.0005 13.2109 22.989C13.393 22.9768 13.6068 22.9483 13.8306 22.8598L13.095 21C13.1416 20.9816 13.1577 20.9881 13.0776 20.9935C12.9875 20.9995 12.8629 21 12.6316 21V23ZM11.3682 23H12.6316V21H11.3682V23ZM10.1696 22.8599C10.3933 22.9484 10.607 22.9769 10.7891 22.989C10.9613 23.0005 11.1636 23 11.3682 23V21C11.137 21 11.0125 20.9995 10.9224 20.9935C10.8423 20.9881 10.8584 20.9816 10.905 21L10.1696 22.8599ZM9.1275 21.9168C9.34933 22.3469 9.71958 22.682 10.1696 22.8599L10.905 21L10.905 21L9.1275 21.9168ZM8.86882 20.7381C8.88918 20.9417 8.9088 21.1431 8.93737 21.3132C8.96759 21.4932 9.01721 21.703 9.1275 21.9168L10.905 21C10.9279 21.0445 10.9231 21.0612 10.9098 20.982C10.8948 20.893 10.8819 20.7691 10.8589 20.539L8.86882 20.7381ZM8.77387 19.7885C8.7106 19.7056 8.73073 19.6689 8.76584 19.864C8.79922 20.0495 8.82609 20.3108 8.86882 20.7381L10.8589 20.539C10.8195 20.1454 10.7848 19.791 10.7342 19.5098C10.6853 19.2381 10.599 18.8836 10.364 18.5755L8.77387 19.7885ZM8.77387 19.7885L8.77387 19.7885L10.364 18.5755C9.92815 18.0042 9.21939 17.7106 8.50728 17.8064L8.77387 19.7885ZM8.03531 20.3928C8.36763 20.1209 8.5714 19.9551 8.72619 19.8476C8.88895 19.7345 8.87724 19.7746 8.77387 19.7885L8.50727 17.8064C8.12318 17.858 7.81149 18.0477 7.58481 18.2052C7.35015 18.3683 7.07504 18.5944 6.76884 18.8449L8.03531 20.3928ZM8.06643 20.3663L8.06644 20.3663L6.73771 18.8714L6.7377 18.8715L8.06643 20.3663ZM7.01887 21.0434C7.24807 20.9702 7.4315 20.8569 7.58013 20.751C7.72064 20.6509 7.87692 20.5224 8.0353 20.3928L6.76883 18.8449C6.58988 18.9913 6.49316 19.0698 6.41963 19.1222C6.35422 19.1688 6.36258 19.1535 6.41029 19.1383L7.01887 21.0434ZM5.61515 20.9734C6.05918 21.1658 6.55791 21.1907 7.01887 21.0434L6.41029 19.1383L6.41029 19.1383L5.61515 20.9734ZM4.6685 20.2249C4.81321 20.3696 4.95592 20.513 5.08577 20.6266C5.22313 20.7468 5.39438 20.8777 5.61515 20.9734L6.41029 19.1383C6.45624 19.1582 6.46304 19.1742 6.40259 19.1213C6.33464 19.0619 6.2462 18.9742 6.08271 18.8107L4.6685 20.2249ZM3.77506 19.3315L4.6685 20.2249L6.08271 18.8107L5.18927 17.9172L3.77506 19.3315ZM3.02657 18.3848C3.12223 18.6056 3.25318 18.7768 3.37333 18.9142C3.48692 19.044 3.63036 19.1868 3.77506 19.3315L5.18928 17.9172C5.02579 17.7538 4.93809 17.6653 4.87864 17.5974C4.82577 17.5369 4.8418 17.5437 4.86171 17.5897L3.02657 18.3848ZM2.95656 16.9811C2.8093 17.4421 2.83417 17.9408 3.02657 18.3848L4.86171 17.5897L4.86171 17.5897L2.95656 16.9811ZM3.60715 15.9647C3.47756 16.123 3.34903 16.2793 3.24892 16.4198C3.14303 16.5685 3.02977 16.7519 2.95656 16.9811L4.86171 17.5897C4.84647 17.6374 4.83119 17.6457 4.87779 17.5803C4.93018 17.5068 5.00865 17.4101 5.15506 17.2311L3.60715 15.9647ZM4.2114 15.2261C4.2253 15.1228 4.26548 15.1111 4.15237 15.2738C4.0448 15.4286 3.87903 15.6324 3.60715 15.9647L5.15506 17.2311C5.40558 16.9249 5.63162 16.6498 5.79469 16.4152C5.95222 16.1885 6.14188 15.8768 6.19355 15.4928L4.2114 15.2261ZM4.2114 15.2261L4.2114 15.2261L6.19355 15.4928C6.28934 14.7806 5.99575 14.0718 5.42445 13.636L4.2114 15.2261ZM3.26193 15.1312C3.68915 15.1739 3.95044 15.2008 4.13595 15.2342C4.33101 15.2693 4.29432 15.2894 4.2114 15.2261L5.42445 13.636C5.11633 13.4009 4.76184 13.3147 4.49017 13.2658C4.20894 13.2152 3.85458 13.1805 3.46093 13.1411L3.26193 15.1312ZM2.08323 14.8725C2.29705 14.9828 2.50683 15.0324 2.6868 15.0626C2.85693 15.0912 3.05831 15.1108 3.26193 15.1312L3.46094 13.1411C3.23089 13.1181 3.10701 13.1052 3.01798 13.0902C2.93878 13.0769 2.95549 13.0721 3 13.095L2.08323 14.8725ZM1.14009 13.8304C1.31803 14.2804 1.65311 14.6507 2.08323 14.8725L3 13.095L3 13.095L1.14009 13.8304ZM1 12.6318C1 12.8364 0.999483 13.0387 1.01098 13.2109C1.02314 13.3929 1.05163 13.6066 1.14009 13.8304L3 13.095C3.01841 13.1416 3.01188 13.1577 3.00653 13.0776C3.00052 12.9875 3 12.863 3 12.6318H1ZM1 11.3683V12.6318H3V11.3683H1ZM1.14017 10.1694C1.05166 10.3932 1.02315 10.607 1.01098 10.7891C0.999483 10.9613 1 11.1637 1 11.3683H3C3 11.1371 3.00052 11.0125 3.00654 10.9224C3.01189 10.8423 3.01842 10.8584 3 10.905L1.14017 10.1694ZM2.08305 9.12757C1.65308 9.34939 1.3181 9.71954 1.14017 10.1694L3 10.905L3 10.905L2.08305 9.12757ZM3.26205 8.86881C3.05837 8.88917 2.85694 8.9088 2.68677 8.93737C2.50676 8.9676 2.29692 9.01724 2.08305 9.12757L3 10.905C2.95548 10.928 2.93877 10.9231 3.01798 10.9098C3.10704 10.8948 3.23094 10.8819 3.46105 10.8589L3.26205 8.86881ZM3.36155 8.86384H3.36155V10.8638H3.36155V8.86384ZM3.36156 8.86384H3.36155V10.8638H3.36156V8.86384ZM4.21177 8.77383C4.29471 8.71055 4.33141 8.73069 4.1363 8.7658C3.95075 8.7992 3.68939 8.82607 3.26205 8.86881L3.46106 10.8589C3.85482 10.8195 4.20927 10.7848 4.49056 10.7342C4.76231 10.6853 5.1169 10.5989 5.42506 10.3638L4.21177 8.77383ZM4.21177 8.77383L4.21178 8.77383L5.42506 10.3638C5.99613 9.92801 6.28962 9.21944 6.19396 8.50749L4.21177 8.77383ZM3.60732 8.03506C3.87929 8.36746 4.04511 8.5713 4.15272 8.72614C4.26586 8.88895 4.22567 8.87724 4.21177 8.77383L6.19396 8.50749C6.14234 8.1233 5.95263 7.81151 5.79506 7.58478C5.63195 7.35006 5.40584 7.07487 5.15523 6.76858L3.60732 8.03506ZM2.95652 7.01822C3.02973 7.24751 3.14303 7.43102 3.24896 7.5797C3.3491 7.72027 3.47768 7.8766 3.60732 8.03506L5.15523 6.76858C5.00876 6.58956 4.93026 6.49279 4.87785 6.41923C4.83123 6.35379 4.84651 6.36215 4.86175 6.40988L2.95652 7.01822ZM3.02651 5.61498C2.83424 6.05887 2.80938 6.5574 2.95652 7.01822L4.86175 6.40988L4.86175 6.40988L3.02651 5.61498ZM3.77523 4.66798C3.63047 4.81274 3.48698 4.9555 3.37335 5.08539C3.25316 5.2228 3.12217 5.39412 3.02651 5.61498L4.86175 6.40988C4.84184 6.45585 4.8258 6.46265 4.8787 6.40219C4.93816 6.33421 5.02589 6.24574 5.18944 6.0822L3.77523 4.66798ZM4.66855 3.77466L3.77523 4.66798L5.18944 6.0822L6.08276 5.18888L4.66855 3.77466ZM4.66855 3.77466L4.66855 3.77466L6.08276 5.18888L6.08276 5.18887L4.66855 3.77466ZM5.6152 3.02616C5.39443 3.12181 5.22317 3.25276 5.08582 3.37292C4.95597 3.48651 4.81325 3.62995 4.66855 3.77466L6.08276 5.18887C6.24625 5.02538 6.33469 4.93768 6.40264 4.87824C6.46309 4.82536 6.45629 4.84139 6.41033 4.8613L5.6152 3.02616ZM7.01892 2.95614C6.55795 2.80889 6.05923 2.83377 5.6152 3.02615L6.41033 4.8613L6.41034 4.8613L7.01892 2.95614ZM8.03543 3.60681C7.87702 3.47719 7.72073 3.34865 7.58021 3.24853C7.43158 3.14264 7.24813 3.02936 7.01892 2.95614L6.41034 4.8613C6.36262 4.84606 6.35426 4.83078 6.41969 4.8774C6.49324 4.9298 6.58999 5.00829 6.76896 5.15472L8.03543 3.60681ZM8.77391 4.21101C8.87727 4.22493 8.88897 4.26509 8.72621 4.15198C8.57144 4.04441 8.36769 3.87865 8.03543 3.60681L6.76896 5.15472C7.07512 5.40521 7.35018 5.63122 7.58477 5.79427C7.81138 5.95176 8.123 6.14141 8.50697 6.19312L8.77391 4.21101ZM8.77391 4.21101L8.77391 4.21101L8.50697 6.19312C9.21932 6.28905 9.92836 5.99536 10.3642 5.42382L8.77391 4.21101ZM8.86883 3.2618C8.82612 3.6889 8.79926 3.95012 8.76589 4.13558C8.7308 4.33059 8.71068 4.29392 8.77391 4.21101L10.3642 5.42382C10.5992 5.11576 10.6854 4.76136 10.7343 4.48976C10.7849 4.20861 10.8196 3.85435 10.8589 3.46081L8.86883 3.2618ZM9.12739 2.08341C9.01716 2.29719 8.96756 2.50692 8.93736 2.68683C8.9088 2.85692 8.88919 3.05824 8.86883 3.2618L10.8589 3.46081C10.8819 3.23082 10.8948 3.10698 10.9098 3.01798C10.923 2.9388 10.9279 2.9555 10.905 3L9.12739 2.08341ZM10.1698 1.14002C9.71962 1.31796 9.34924 1.65315 9.12739 2.08341L10.905 3L10.905 3L10.1698 1.14002ZM11.3681 1C11.1635 1 10.9612 0.999483 10.7892 1.01097C10.6071 1.02313 10.3935 1.05161 10.1698 1.14002L10.905 3C10.8584 3.0184 10.8423 3.01188 10.9224 3.00653C11.0125 3.00052 11.137 3 11.3681 3V1ZM12.6318 1H11.3681V3H12.6318V1ZM13.8304 1.1401C13.6066 1.05163 13.393 1.02314 13.2109 1.01098C13.0387 0.999483 12.8364 1 12.6318 1V3C12.863 3 12.9875 3.00052 13.0776 3.00653C13.1577 3.01188 13.1416 3.01841 13.095 3L13.8304 1.1401ZM14.8725 2.08322C14.6507 1.65312 14.2804 1.31803 13.8304 1.1401L13.095 3L13.095 3L14.8725 2.08322ZM15 12C15 13.6569 13.6569 15 12 15V17C14.7614 17 17 14.7614 17 12H15ZM12 9C13.6569 9 15 10.3431 15 12H17C17 9.23858 14.7614 7 12 7V9ZM9 12C9 10.3431 10.3431 9 12 9V7C9.23858 7 7 9.23858 7 12H9ZM12 15C10.3431 15 9 13.6569 9 12H7C7 14.7614 9.23858 17 12 17V15Z"
                  fill="#9B51E0"/>

        </g>
    </symbol>

    <symbol id="calendar" width="20" height="20" viewBox="0 0 20 20" fill="none">
        <g>
            <g clip-path="url(#clip0_14_403)">
                <path d="M2.14287 3.57144C1.76399 3.57144 1.40062 3.72195 1.13271 3.98986C0.864804 4.25777 0.714294 4.62113 0.714294 5.00001V17.8572C0.714294 18.236 0.864804 18.5994 1.13271 18.8673C1.40062 19.1352 1.76399 19.2857 2.14287 19.2857H17.8572C18.236 19.2857 18.5994 19.1352 18.8673 18.8673C19.1352 18.5994 19.2857 18.236 19.2857 17.8572V5.00001C19.2857 4.62113 19.1352 4.25777 18.8673 3.98986C18.5994 3.72195 18.236 3.57144 17.8572 3.57144H15" stroke="#9747FF" stroke-linecap="round" stroke-linejoin="round"/>
                <path d="M5 0.714294V6.42858" stroke="#9747FF" stroke-linecap="round" stroke-linejoin="round"/>
                <path d="M15 0.714294V6.42858" stroke="#9747FF" stroke-linecap="round" stroke-linejoin="round"/>
                <path d="M5 3.57144H12.1429" stroke="#9747FF" stroke-linecap="round" stroke-linejoin="round"/>
                <path d="M9.21432 7.67143C9.27581 7.51304 9.38375 7.37693 9.52396 7.28096C9.66417 7.18499 9.83012 7.13364 10 7.13364C10.1699 7.13364 10.3359 7.18499 10.4761 7.28096C10.6163 7.37693 10.7242 7.51304 10.7857 7.67143L11.7 10H14.1429C14.3026 10.0122 14.4557 10.0689 14.5849 10.1637C14.714 10.2585 14.814 10.3876 14.8735 10.5363C14.933 10.6851 14.9496 10.8475 14.9215 11.0052C14.8934 11.1629 14.8216 11.3096 14.7143 11.4286L12.5572 13.3714L13.4715 15.2C13.5542 15.3605 13.5823 15.5437 13.5513 15.7217C13.5204 15.8996 13.4321 16.0626 13.3 16.1857C13.1688 16.3104 13.002 16.3912 12.8228 16.4168C12.6436 16.4424 12.4609 16.4116 12.3 16.3286L10 15.0714L7.70003 16.3286C7.53916 16.4116 7.35642 16.4424 7.17722 16.4168C6.99801 16.3912 6.83123 16.3104 6.70003 16.1857C6.56793 16.0626 6.47969 15.8996 6.44874 15.7217C6.41779 15.5437 6.44584 15.3605 6.5286 15.2L7.44289 13.3714L5.28574 11.4286C5.17848 11.3096 5.10671 11.1629 5.07857 11.0052C5.05043 10.8475 5.06706 10.6851 5.12655 10.5363C5.18605 10.3876 5.28604 10.2585 5.41518 10.1637C5.54432 10.0689 5.69744 10.0122 5.85717 10H8.30003L9.21432 7.67143Z" stroke="#9747FF" stroke-linecap="round" stroke-linejoin="round"/>
            </g>
            <defs>
                <clipPath id="clip0_14_403">
                    <rect width="20" height="20" fill="white"/>
                </clipPath>
            </defs>
        </g>
    </symbol>
    <symbol id="chat" width="24" height="24" viewBox="0 0 24 24" fill="none">
        <g>

            <path d="M15.5 11.5H15.51M11.5 11.5H11.51M7.5 11.5H7.51M15.3 19.1L21 21L19.1 15.3C19.1 15.3 20 14 20 11.5C20 6.80558 16.1944 3 11.5 3C6.80558 3 3 6.80558 3 11.5C3 16.1944 6.80558 20 11.5 20C14.0847 20 15.3 19.1 15.3 19.1Z"
                  stroke="#9747FF" stroke-width="1.5" stroke-linecap="round" stroke-linejoin="round"/>

        </g>
    </symbol>
    <symbol id="messages" width="23" height="18" viewBox="0 0 23 18" fill="none">
        <g>
            <path d="M1.41107 2.41527C1.41107 1.75182 1.94891 1.21399 2.61236 1.21399H14.6252C15.2887 1.21399 15.8265 1.75182 15.8265 2.41527V7.27634C15.8265 7.39851 15.8451 7.51997 15.8818 7.63652L16.7396 10.366C17.0575 11.3775 16.0047 12.2748 15.0563 11.8007L12.7165 10.6307C12.5497 10.5473 12.3658 10.5039 12.1793 10.5039H2.61236C1.94891 10.5039 1.41107 9.96609 1.41107 9.30264V2.41527Z" stroke="#9747FF" stroke-width="1.30214"/>
            <rect x="3.01288" y="3.13611" width="19.5409" height="12.8137" fill="white"/>
            <path d="M5.25519 6.57982C5.25519 5.91637 5.79302 5.37854 6.45647 5.37854H18.4693C19.1328 5.37854 19.6706 5.91637 19.6706 6.57982V11.4409C19.6706 11.5631 19.6892 11.6845 19.7259 11.8011L20.5837 14.5306C20.9016 15.5421 19.8488 16.4394 18.9005 15.9652L16.5607 14.7953C16.3938 14.7119 16.2099 14.6685 16.0234 14.6685H6.45647C5.79302 14.6685 5.25519 14.1306 5.25519 13.4672V6.57982Z" fill="white"/>
            <path d="M5.25519 6.57982C5.25519 5.91637 5.79302 5.37854 6.45647 5.37854H18.4693C19.1328 5.37854 19.6706 5.91637 19.6706 6.57982V11.4409C19.6706 11.5631 19.6892 11.6845 19.7259 11.8011L20.5837 14.5306C20.9016 15.5421 19.8488 16.4394 18.9005 15.9652L16.5607 14.7953C16.3938 14.7119 16.2099 14.6685 16.0234 14.6685H6.45647C5.79302 14.6685 5.25519 14.1306 5.25519 13.4672V6.57982Z" fill="white"/>
            <path d="M16.5607 14.7953L18.9005 15.9652C19.8488 16.4394 20.9016 15.5421 20.5837 14.5306L19.7259 11.8011C19.6892 11.6845 19.6706 11.5631 19.6706 11.4409V6.57982C19.6706 5.91637 19.1328 5.37854 18.4693 5.37854H6.45647C5.79302 5.37854 5.25519 5.91637 5.25519 6.57982V13.4672C5.25519 14.1306 5.79302 14.6685 6.45647 14.6685H16.0234C16.2099 14.6685 16.3938 14.7119 16.5607 14.7953Z" stroke="#9747FF" stroke-width="1.30214"/>
        </g>
    </symbol>
    <symbol id="list_right" width="24" height="24" viewBox="0 0 24 24" fill="none">
        <g>

            <path d="M7 8H17M7 12H17M7 16H13M4 4H20V20H4V4Z" stroke="#9747FF" stroke-width="1.5" stroke-linecap="round"
                  stroke-linejoin="round"/>

        </g>
    </symbol>

    <symbol id="camera" width="24" height="24" viewBox="0 0 24 24" fill="none">
        <g>

            <path d="M21 17V9C21 7.89543 20.1046 7 19 7H16.5C15.9477 7 15.5 6.55228 15.5 6C15.5 5.44772 15.0523 5 14.5 5H9.5C8.94772 5 8.5 5.44772 8.5 6C8.5 6.55228 8.05228 7 7.5 7H5C3.89543 7 3 7.89543 3 9V17C3 18.1046 3.89543 19 5 19H19C20.1046 19 21 18.1046 21 17Z"
                  stroke="#9747FF" stroke-width="1.5"/>
            <path d="M15 13C15 14.6569 13.6569 16 12 16C10.3431 16 9 14.6569 9 13C9 11.3431 10.3431 10 12 10C13.6569 10 15 11.3431 15 13Z"
                  stroke="#9747FF" stroke-width="1.5"/>

        </g>
    </symbol>


    <symbol id="map" width="12" height="16" viewBox="0 0 12 16" fill="none">
        <g>

            <path d="M6 3.34884C5.47565 3.34884 4.96307 3.50433 4.52709 3.79564C4.09111 4.08695 3.75131 4.50101 3.55065 4.98544C3.34998 5.46988 3.29748 6.00294 3.39978 6.51722C3.50207 7.03149 3.75457 7.50388 4.12535 7.87466C4.49612 8.24543 4.96851 8.49793 5.48278 8.60022C5.99706 8.70252 6.53012 8.65002 7.01456 8.44936C7.49899 8.2487 7.91305 7.90889 8.20436 7.47291C8.49567 7.03693 8.65116 6.52435 8.65116 6C8.65116 5.29687 8.37184 4.62253 7.87466 4.12535C7.37747 3.62816 6.70313 3.34884 6 3.34884ZM6 7.81395C5.64123 7.81395 5.29052 7.70757 4.99222 7.50825C4.69392 7.30893 4.46142 7.02563 4.32413 6.69417C4.18683 6.36271 4.15091 5.99799 4.2209 5.64612C4.29089 5.29424 4.46366 4.97103 4.71734 4.71734C4.97103 4.46366 5.29424 4.29089 5.64612 4.2209C5.99799 4.15091 6.36271 4.18683 6.69417 4.32413C7.02563 4.46142 7.30893 4.69392 7.50825 4.99222C7.70757 5.29052 7.81395 5.64123 7.81395 6C7.81395 6.48109 7.62284 6.94248 7.28266 7.28266C6.94248 7.62284 6.48109 7.81395 6 7.81395ZM6 0C4.40927 0.00184647 2.88422 0.634581 1.7594 1.7594C0.634581 2.88422 0.00184647 4.40927 0 6C0 8.15651 1.00047 10.447 2.89326 12.6237C3.74757 13.611 4.70906 14.5002 5.76 15.2749C5.83035 15.3241 5.91414 15.3505 6 15.3505C6.08586 15.3505 6.16965 15.3241 6.24 15.2749C7.29094 14.5002 8.25243 13.611 9.10674 12.6237C10.9995 10.447 12 8.15861 12 6C11.9982 4.40927 11.3654 2.88422 10.2406 1.7594C9.11578 0.634581 7.59073 0.00184647 6 0ZM6 14.4077C4.95349 13.5998 0.837209 10.1595 0.837209 6C0.837209 4.63074 1.38114 3.31757 2.34936 2.34936C3.31757 1.38114 4.63074 0.837209 6 0.837209C7.36926 0.837209 8.68243 1.38114 9.65064 2.34936C10.6189 3.31757 11.1628 4.63074 11.1628 6C11.1628 10.1595 7.04651 13.5998 6 14.4077Z"
                  fill="#0A66C2"/>

        </g>
    </symbol>

    <symbol id="heart" width="24" height="24" viewBox="0 0 24 24" fill="none">
        <g>
            <path d="M4.3314 12.0474L12 20L19.6686 12.0474C20.5211 11.1633 21 9.96429 21 8.71405C21 6.11055 18.9648 4 16.4543 4C15.2487 4 14.0925 4.49666 13.24 5.38071L12 6.66667L10.76 5.38071C9.90749 4.49666 8.75128 4 7.54569 4C5.03517 4 3 6.11055 3 8.71405C3 9.96429 3.47892 11.1633 4.3314 12.0474Z" fill="#9747FF"/>
            <path d="M4.3314 12.0474L12 20L19.6686 12.0474C20.5211 11.1633 21 9.96429 21 8.71405C21 6.11055 18.9648 4 16.4543 4C15.2487 4 14.0925 4.49666 13.24 5.38071L12 6.66667L10.76 5.38071C9.90749 4.49666 8.75128 4 7.54569 4C5.03517 4 3 6.11055 3 8.71405C3 9.96429 3.47892 11.1633 4.3314 12.0474Z" stroke="#9747FF" stroke-width="1.5" stroke-linecap="round" stroke-linejoin="round"/>

        </g>
    </symbol>

    <symbol id="obiwan" width="100%" viewBox="0 0 512 512" enable-background="new 0 0 512 512" xml:space="preserve">
        <g>
            <path fill="#96592F" opacity="1.000000" stroke="none"
                  d="
M102.749634,312.053375
	C109.290848,286.791321 115.998482,261.570831 122.319077,236.253708
	C127.128296,216.990341 131.302383,197.569077 136.027557,178.283859
	C139.808929,162.850525 146.934280,149.022110 157.461517,137.070618
	C170.789291,121.939674 184.270462,106.943916 197.624176,91.835678
	C200.787582,88.256653 203.662552,84.424408 206.747131,80.773651
	C214.353241,71.771454 224.876022,68.391838 235.854752,68.237473
	C252.230469,68.007240 268.626495,69.399406 285.017334,70.008011
	C298.287567,70.500748 307.659637,77.152596 315.428986,87.555252
	C321.156036,95.223419 328.232513,101.873344 334.564178,109.102661
	C345.334015,121.399345 355.125397,134.711029 366.948303,145.881134
	C377.904999,156.232834 378.245026,169.132919 379.944763,182.023331
	C382.972717,204.987137 385.633759,227.939331 392.475922,250.263031
	C399.546021,273.330505 405.506805,296.737335 412.009613,319.979858
	C413.158813,324.087311 414.586365,328.116882 415.567505,332.411011
	C409.791595,327.695892 404.205414,322.884460 398.918365,317.764160
	C395.080627,314.047516 391.638794,309.921997 388.000122,305.823303
	C387.820618,305.549927 387.661377,305.431976 387.502167,305.314056
	C387.662506,305.546173 387.822815,305.778290 388.011108,306.383728
	C392.883911,320.046722 400.232910,331.933533 409.320160,342.625488
	C413.854034,347.960022 419.590851,352.272186 424.783539,357.046783
	C436.011139,371.517578 441.406525,387.891479 441.029938,406.219940
	C440.924866,411.333160 437.539154,414.205933 434.236053,417.168030
	C425.623291,424.891632 416.294189,431.938873 408.474060,440.388031
	C401.254761,448.187988 393.073059,447.038269 386.527222,443.506622
	C381.278992,440.675079 376.191406,436.517792 372.669067,431.741852
	C366.461029,423.324310 357.917145,419.811249 348.490082,419.276459
	C339.016541,418.738983 329.258057,419.492645 319.934448,421.289246
	C313.149628,422.596680 306.864594,426.509949 300.364288,429.279144
	C289.676270,433.832214 278.510864,436.053467 266.940155,437.082184
	C240.234970,439.456482 216.016006,431.565125 192.432846,420.256622
	C182.079391,415.291962 171.076462,415.292297 160.236435,418.427979
	C147.423798,422.134216 135.975662,428.422485 125.970718,437.448181
	C120.179893,442.672180 112.663673,442.390656 106.357285,439.402374
	C98.448944,435.654999 91.073494,430.554321 84.043343,425.272064
	C80.119843,422.324066 75.419174,418.231323 74.517021,413.931061
	C73.009491,406.744995 72.830032,398.608337 74.658363,391.535309
	C78.384773,377.119568 83.782585,363.132751 88.601555,349.006653
	C89.171089,347.337158 90.427071,345.901855 91.992142,344.105835
	C93.819946,342.998505 95.208939,342.318909 96.193283,341.262360
	C118.528572,317.288635 131.900803,288.770325 138.756470,256.974701
	C138.773422,256.896149 138.315857,256.715240 138.640244,256.898224
	C130.927353,271.002930 123.587814,285.337708 115.299522,299.101166
	C112.278221,304.118317 106.998825,307.775635 102.749634,312.053375
M181.392410,251.468246
	C180.379135,254.263931 179.307907,257.040161 178.362579,259.858643
	C174.167007,272.367371 170.007553,284.888245 165.307190,297.934265
	C160.113220,311.297363 154.919250,324.660431 149.342804,338.580872
	C140.439667,359.553345 131.478546,380.501617 122.695801,401.524384
	C121.376228,404.682953 117.850342,408.789062 121.638611,411.351257
	C123.747131,412.777313 128.459015,411.178040 131.661392,410.015778
	C143.529724,405.708496 155.184296,400.809723 167.068665,396.550232
	C173.597321,394.210297 180.424591,392.703491 187.703842,391.157013
	C196.273010,399.393829 204.842194,407.630646 213.772247,416.214355
	C214.919235,413.458008 215.781586,411.385681 216.229950,410.308197
	C228.009857,415.349426 239.578232,420.219055 251.065002,425.274139
	C253.860855,426.504547 255.252747,426.015015 257.081512,423.438568
	C263.171356,414.858948 272.237427,410.587006 283.067169,406.215485
	C281.898010,411.659698 281.023956,415.729736 280.000305,420.496368
	C291.436951,415.763336 301.993744,410.354980 307.378815,399.443573
	C311.044250,392.016541 316.910034,386.915009 322.589203,381.327911
	C323.221436,381.516327 323.859009,381.885406 324.485077,381.866760
	C339.522614,381.419464 351.707245,388.036987 362.913147,397.209167
	C368.944641,402.146057 374.965973,407.117737 381.280518,411.673676
	C383.321381,413.146149 386.281097,413.345123 388.820435,414.126678
	C388.341492,411.482239 388.352936,408.620758 387.295898,406.232117
	C383.400635,397.429779 378.982147,388.859253 375.076324,380.061279
	C369.622284,367.775848 364.451752,355.364563 359.090332,342.226776
	C356.690460,335.149109 354.383911,328.037994 351.864166,321.003265
	C349.410004,314.151642 346.737701,307.378143 344.170807,299.823639
	C333.676514,274.694214 323.466522,249.439621 312.496185,224.519745
	C309.604034,217.949982 304.700195,212.143814 300.136932,206.454773
	C286.875183,189.921432 270.060059,181.137009 248.239868,181.683533
	C228.396881,182.180511 212.134827,189.386093 201.754593,206.042389
	C194.630585,217.473709 190.258011,230.619766 184.206436,243.499268
	C183.420074,245.971634 182.633713,248.444000 181.392410,251.468246
M386.472931,302.503632
	C386.472931,302.503632 386.513824,302.487640 386.472931,302.503632
z"/>
            <path fill="#7D4823" opacity="1.000000" stroke="none"
                  d="
M102.490387,312.312500
	C106.998825,307.775635 112.278221,304.118317 115.299522,299.101166
	C123.587814,285.337708 130.927353,271.002930 138.640244,256.898224
	C138.315857,256.715240 138.773422,256.896149 138.756470,256.974701
	C131.900803,288.770325 118.528572,317.288635 96.193283,341.262360
	C95.208939,342.318909 93.819946,342.998505 92.277786,343.911682
	C95.367813,333.503693 98.799477,323.037659 102.490387,312.312500
z"/>
            <path fill="#7D4823" opacity="1.000000" stroke="none"
                  d="
M388.020447,305.978760
	C391.638794,309.921997 395.080627,314.047516 398.918365,317.764160
	C404.205414,322.884460 409.791595,327.695892 415.545319,332.786743
	C418.849915,340.725067 421.858856,348.516266 424.825684,356.677124
	C419.590851,352.272186 413.854034,347.960022 409.320160,342.625488
	C400.232910,331.933533 392.883911,320.046722 388.020935,306.376984
	C388.002777,305.996887 388.020447,305.978760 388.020447,305.978760
z"/>
            <path fill="#F4F3F3" opacity="1.000000" stroke="none"
                  d="
M321.900635,380.856506
	C316.910034,386.915009 311.044250,392.016541 307.378815,399.443573
	C301.993744,410.354980 291.436951,415.763336 280.000305,420.496368
	C281.023956,415.729736 281.898010,411.659698 283.067169,406.215485
	C272.237427,410.587006 263.171356,414.858948 257.081512,423.438568
	C255.252747,426.015015 253.860855,426.504547 251.065002,425.274139
	C239.578232,420.219055 228.009857,415.349426 216.229950,410.308197
	C215.781586,411.385681 214.919235,413.458008 213.772247,416.214355
	C204.842194,407.630646 196.273010,399.393829 187.303650,390.667358
	C184.567413,386.739349 182.239197,383.295624 179.893280,379.864014
	C177.139008,375.835083 175.706314,369.783905 167.817780,373.541809
	C168.796204,360.995972 164.926910,351.410248 156.076401,343.782959
	C156.903763,341.756439 157.639877,340.087708 158.242523,338.372131
	C162.512192,326.217316 166.754532,314.052917 171.241379,301.876923
	C171.477188,301.862274 171.948395,301.826721 172.249832,302.016876
	C177.733444,305.183594 182.955643,308.093658 188.074814,311.174896
	C189.736801,312.175232 192.445343,313.637482 192.431992,314.864075
	C192.343933,322.960999 199.494751,323.057709 204.064743,325.887451
	C205.133545,326.549225 207.180649,326.726868 208.233047,326.143951
	C215.911072,321.891418 223.450012,317.387817 231.285904,313.094482
	C232.081253,313.752228 232.623566,314.279022 233.115829,315.225830
	C232.493011,319.145538 233.706055,321.599213 236.767303,323.624573
	C241.203934,326.559967 245.157410,330.244263 249.673584,333.031189
	C251.408722,334.101959 254.471390,334.412506 256.323853,333.632324
	C261.213928,331.572784 265.671326,328.509735 270.492645,326.256256
	C275.040863,324.130432 277.973206,321.574951 275.671448,316.114136
	C275.627686,316.010254 276.087952,315.693939 277.006744,314.807434
	C289.233398,324.757477 303.134003,329.266998 319.567383,324.290161
	C316.361664,320.369659 317.975250,318.270782 321.453522,316.283020
	C327.087128,313.063507 332.494171,309.447571 338.153656,306.324371
	C342.846588,319.166870 347.336914,331.701019 351.971405,344.181671
	C352.619171,345.926117 353.975098,347.407562 354.938354,349.355713
	C351.578705,355.382050 348.283936,361.063446 344.888031,366.919250
	C342.230072,365.982117 339.851288,365.344788 337.655060,364.317200
	C335.004639,363.077148 333.584534,363.912750 332.073425,366.257446
	C328.862427,371.239746 325.311981,376.003296 321.900635,380.856506
M271.590118,365.726135
	C273.783051,367.497345 275.816254,369.554108 278.241241,370.910370
	C279.332001,371.520386 281.566040,371.210449 282.608917,370.425079
	C283.439667,369.799438 283.806274,367.631317 283.415710,366.472656
	C281.841980,361.804016 271.538513,354.959747 266.473419,354.944580
	C258.156860,354.919647 249.812912,355.356201 241.531219,354.817871
	C233.328247,354.284637 226.212387,356.166687 219.615509,361.028076
	C217.083755,362.893768 214.806198,364.532654 216.689606,367.776459
	C218.608368,371.081146 221.291870,369.655975 223.491547,367.970154
	C229.062103,363.700958 235.262421,362.447723 242.196701,362.847992
	C249.491089,363.269073 256.835785,362.761108 264.142975,363.051239
	C266.447021,363.142761 268.700897,364.498413 271.590118,365.726135
M263.790863,379.595123
	C265.374298,375.454956 263.102448,374.065125 259.542145,374.003479
	C252.587189,373.883026 245.616074,373.733978 238.680267,374.116180
	C236.851974,374.216919 235.128281,376.216034 233.356537,377.343384
	C235.048889,378.856110 236.658005,381.547516 238.448242,381.673889
	C245.534012,382.174164 252.678223,381.948029 259.796295,381.789978
	C260.973724,381.763794 262.128876,380.732910 263.790863,379.595123
z"/>
            <path fill="#DFC2AB" opacity="1.000000" stroke="none"
                  d="
M184.655548,242.999329
	C190.258011,230.619766 194.630585,217.473709 201.754593,206.042389
	C212.134827,189.386093 228.396881,182.180511 248.239868,181.683533
	C270.060059,181.137009 286.875183,189.921432 300.136932,206.454773
	C304.700195,212.143814 309.604034,217.949982 312.496185,224.519745
	C323.466522,249.439621 333.676514,274.694214 344.002075,300.519440
	C341.903900,302.497650 339.974426,303.780029 337.880615,304.737732
	C334.013031,295.340424 330.310913,286.267334 326.606232,277.195312
	C323.726898,270.144440 320.844452,263.094818 318.380554,256.016541
	C320.570160,255.902145 322.342621,255.815842 324.121582,255.729233
	C323.614105,248.304871 320.441864,246.081238 313.474365,248.112656
	C314.324615,250.408051 315.171478,252.694366 315.549744,255.000153
	C300.515137,254.613586 286.219818,256.459229 272.154846,260.198090
	C269.179718,260.988953 265.737823,262.032715 264.505310,258.175781
	C263.089569,253.745483 267.091003,252.889069 270.051788,252.202301
	C277.002686,250.590012 283.999176,249.053329 291.058228,248.063690
	C297.703033,247.132141 304.451508,246.940399 312.585022,246.312790
	C307.630585,239.627121 303.531830,233.658264 298.992004,228.046204
	C280.061005,204.644211 255.188416,200.030487 227.991638,208.193726
	C211.104660,213.262436 201.087372,226.401306 193.853394,242.099518
	C193.430908,242.430603 193.220016,242.649734 192.577362,242.899384
	C189.630630,242.935440 187.143082,242.967377 184.655548,242.999329
z"/>
            <path fill="#7D4824" opacity="1.000000" stroke="none"
                  d="
M155.923370,344.119110
	C164.926910,351.410248 168.796204,360.995972 167.817780,373.541809
	C175.706314,369.783905 177.139008,375.835083 179.893280,379.864014
	C182.239197,383.295624 184.567413,386.739349 187.010345,390.499359
	C180.424591,392.703491 173.597321,394.210297 167.068665,396.550232
	C155.184296,400.809723 143.529724,405.708496 131.661392,410.015778
	C128.459015,411.178040 123.747131,412.777313 121.638611,411.351257
	C117.850342,408.789062 121.376228,404.682953 122.695801,401.524384
	C131.478546,380.501617 140.439667,359.553345 149.738983,338.572540
	C152.064560,340.415863 153.993958,342.267487 155.923370,344.119110
z"/>
            <path fill="#7D4824" opacity="1.000000" stroke="none"
                  d="
M322.244934,381.092224
	C325.311981,376.003296 328.862427,371.239746 332.073425,366.257446
	C333.584534,363.912750 335.004639,363.077148 337.655060,364.317200
	C339.851288,365.344788 342.230072,365.982117 344.888031,366.919250
	C348.283936,361.063446 351.578705,355.382050 355.226379,349.188904
	C356.772827,346.787140 357.966370,344.897125 359.159912,343.007111
	C364.451752,355.364563 369.622284,367.775848 375.076324,380.061279
	C378.982147,388.859253 383.400635,397.429779 387.295898,406.232117
	C388.352936,408.620758 388.341492,411.482239 388.820435,414.126678
	C386.281097,413.345123 383.321381,413.146149 381.280518,411.673676
	C374.965973,407.117737 368.944641,402.146057 362.913147,397.209167
	C351.707245,388.036987 339.522614,381.419464 324.485077,381.866760
	C323.859009,381.885406 323.221436,381.516327 322.244934,381.092224
z"/>
            <path fill="#E0C3AB" opacity="1.000000" stroke="none"
                  d="
M171.948395,301.826721
	C171.948395,301.826721 171.477188,301.862274 171.045578,301.608002
	C169.020996,300.037384 167.428024,298.721039 165.835037,297.404724
	C170.007553,284.888245 174.167007,272.367371 178.362579,259.858643
	C179.307907,257.040161 180.379135,254.263931 182.073303,251.235199
	C185.159561,250.989761 187.564911,250.977371 189.902695,251.329071
	C183.872879,268.404327 177.910645,285.115540 171.948395,301.826721
z"/>
            <path fill="#DBDAD9" opacity="1.000000" stroke="none"
                  d="
M165.571106,297.669495
	C167.428024,298.721039 169.020996,300.037384 170.809769,301.622650
	C166.754532,314.052917 162.512192,326.217316 158.242523,338.372131
	C157.639877,340.087708 156.903763,341.756439 156.076385,343.782959
	C153.993958,342.267487 152.064560,340.415863 149.930222,338.293884
	C154.919250,324.660431 160.113220,311.297363 165.571106,297.669495
z"/>
            <path fill="#DBDAD9" opacity="1.000000" stroke="none"
                  d="
M359.125122,342.616943
	C357.966370,344.897125 356.772827,346.787140 355.291229,348.843964
	C353.975098,347.407562 352.619171,345.926117 351.971405,344.181671
	C347.336914,331.701019 342.846588,319.166870 338.165894,306.090240
	C338.021362,305.530762 338.044952,305.062439 338.044952,305.062439
	C339.974426,303.780029 341.903900,302.497650 343.997253,300.892792
	C346.737701,307.378143 349.410004,314.151642 351.864166,321.003265
	C354.383911,328.037994 356.690460,335.149109 359.125122,342.616943
z"/>
            <path fill="#C3A693" opacity="1.000000" stroke="none"
                  d="
M189.970261,250.964996
	C187.564911,250.977371 185.159561,250.989761 182.300781,250.959259
	C182.633713,248.444000 183.420074,245.971634 184.431000,243.249298
	C187.143082,242.967377 189.630630,242.935440 192.504944,243.269836
	C192.271667,245.775238 191.651611,247.914322 190.845612,250.194702
	C190.413025,250.527252 190.183228,250.736908 189.970261,250.964996
z"/>
            <path fill="#7D4823" opacity="1.000000" stroke="none"
                  d="
M387.992950,306.003662
	C387.822815,305.778290 387.662506,305.546173 387.502167,305.314056
	C387.661377,305.431976 387.820618,305.549927 388.000122,305.823303
	C388.020447,305.978760 388.002777,305.996887 387.992950,306.003662
z"/>
            <path fill="#7D4823" opacity="1.000000" stroke="none"
                  d="
M386.493378,302.495636
	C386.513824,302.487640 386.472931,302.503632 386.493378,302.495636
z"/>
            <path fill="#F9D9C0" opacity="1.000000" stroke="none"
                  d="
M337.880615,304.737732
	C338.044952,305.062439 338.021362,305.530762 338.009125,305.764893
	C332.494171,309.447571 327.087128,313.063507 321.453522,316.283020
	C317.975250,318.270782 316.361664,320.369659 319.567383,324.290161
	C303.134003,329.266998 289.233398,324.757477 277.006744,314.807434
	C276.087952,315.693939 275.627686,316.010254 275.671448,316.114136
	C277.973206,321.574951 275.040863,324.130432 270.492645,326.256256
	C265.671326,328.509735 261.213928,331.572784 256.323853,333.632324
	C254.471390,334.412506 251.408722,334.101959 249.673584,333.031189
	C245.157410,330.244263 241.203934,326.559967 236.767303,323.624573
	C233.706055,321.599213 232.493011,319.145538 233.458221,315.226837
	C235.268646,314.030304 237.352219,313.611115 237.995224,312.416504
	C241.818405,305.313751 247.041077,298.356812 248.473114,290.727600
	C250.276718,281.118744 249.409088,270.876190 248.735367,260.972229
	C248.075424,251.270721 244.199387,247.054108 234.677917,245.804474
	C221.195236,244.034988 207.590256,243.197159 194.037552,241.961151
	C201.087372,226.401306 211.104660,213.262436 227.991638,208.193726
	C255.188416,200.030487 280.061005,204.644211 298.992004,228.046204
	C303.531830,233.658264 307.630585,239.627121 312.585022,246.312790
	C304.451508,246.940399 297.703033,247.132141 291.058228,248.063690
	C283.999176,249.053329 277.002686,250.590012 270.051788,252.202301
	C267.091003,252.889069 263.089569,253.745483 264.505310,258.175781
	C265.737823,262.032715 269.179718,260.988953 272.154846,260.198090
	C286.219818,256.459229 300.515137,254.613586 315.800690,255.118256
	C317.001343,255.492798 317.482361,255.768723 317.963409,256.044647
	C320.844452,263.094818 323.726898,270.144440 326.606232,277.195312
	C330.310913,286.267334 334.013031,295.340424 337.880615,304.737732
z"/>
            <path fill="#F9D9C0" opacity="1.000000" stroke="none"
                  d="
M189.902695,251.329071
	C190.183228,250.736908 190.413025,250.527252 191.311142,250.197739
	C202.904694,250.700363 213.970016,250.531509 224.759766,252.173447
	C240.645462,254.590851 239.881622,252.064545 241.470993,268.568481
	C242.759796,281.951324 241.912292,295.190002 233.015594,306.554382
	C231.727493,308.199738 231.663361,310.803314 231.032867,312.963470
	C223.450012,317.387817 215.911072,321.891418 208.233047,326.143951
	C207.180649,326.726868 205.133545,326.549225 204.064743,325.887451
	C199.494751,323.057709 192.343933,322.960999 192.431992,314.864075
	C192.445343,313.637482 189.736801,312.175232 188.074814,311.174896
	C182.955643,308.093658 177.733444,305.183594 172.249832,302.016876
	C177.910645,285.115540 183.872879,268.404327 189.902695,251.329071
z"/>
            <path fill="#D7B7A2" opacity="1.000000" stroke="none"
                  d="
M231.285904,313.094482
	C231.663361,310.803314 231.727493,308.199738 233.015594,306.554382
	C241.912292,295.190002 242.759796,281.951324 241.470993,268.568481
	C239.881622,252.064545 240.645462,254.590851 224.759766,252.173447
	C213.970016,250.531509 202.904694,250.700363 191.497086,250.056427
	C191.651611,247.914322 192.271667,245.775238 192.964142,243.265717
	C193.220016,242.649734 193.430908,242.430603 193.853394,242.099503
	C207.590256,243.197159 221.195236,244.034988 234.677917,245.804474
	C244.199387,247.054108 248.075424,251.270721 248.735367,260.972229
	C249.409088,270.876190 250.276718,281.118744 248.473114,290.727600
	C247.041077,298.356812 241.818405,305.313751 237.995224,312.416504
	C237.352219,313.611115 235.268646,314.030304 233.508270,314.806763
	C232.623566,314.279022 232.081253,313.752228 231.285904,313.094482
z"/>
            <path fill="#D9D7D7" opacity="1.000000" stroke="none"
                  d="
M271.283936,365.500824
	C268.700897,364.498413 266.447021,363.142761 264.142975,363.051239
	C256.835785,362.761108 249.491089,363.269073 242.196701,362.847992
	C235.262421,362.447723 229.062103,363.700958 223.491547,367.970154
	C221.291870,369.655975 218.608368,371.081146 216.689606,367.776459
	C214.806198,364.532654 217.083755,362.893768 219.615509,361.028076
	C226.212387,356.166687 233.328247,354.284637 241.531219,354.817871
	C249.812912,355.356201 258.156860,354.919647 266.473419,354.944580
	C271.538513,354.959747 281.841980,361.804016 283.415710,366.472656
	C283.806274,367.631317 283.439667,369.799438 282.608917,370.425079
	C281.566040,371.210449 279.332001,371.520386 278.241241,370.910370
	C275.816254,369.554108 273.783051,367.497345 271.283936,365.500824
z"/>
            <path fill="#DAD8D8" opacity="1.000000" stroke="none"
                  d="
M263.542603,379.880737
	C262.128876,380.732910 260.973724,381.763794 259.796295,381.789978
	C252.678223,381.948029 245.534012,382.174164 238.448242,381.673889
	C236.658005,381.547516 235.048889,378.856110 233.356537,377.343384
	C235.128281,376.216034 236.851974,374.216919 238.680267,374.116180
	C245.616074,373.733978 252.587189,373.883026 259.542145,374.003479
	C263.102448,374.065125 265.374298,375.454956 263.542603,379.880737
z"/>
            <path fill="#C3A693" opacity="1.000000" stroke="none"
                  d="
M318.380554,256.016541
	C317.482361,255.768723 317.001343,255.492798 316.269348,255.098785
	C315.171478,252.694366 314.324615,250.408051 313.474365,248.112656
	C320.441864,246.081238 323.614105,248.304871 324.121582,255.729233
	C322.342621,255.815842 320.570160,255.902145 318.380554,256.016541
z"/>
        </g>
    </symbol>
</svg>
