<svg width="20" height="20" viewBox="0 0 20 20" fill="none" xmlns="http://www.w3.org/2000/svg">
<g clip-path="url(#clip0_14_403)">
<path d="M2.14287 3.57144C1.76399 3.57144 1.40062 3.72195 1.13271 3.98986C0.864804 4.25777 0.714294 4.62113 0.714294 5.00001V17.8572C0.714294 18.236 0.864804 18.5994 1.13271 18.8673C1.40062 19.1352 1.76399 19.2857 2.14287 19.2857H17.8572C18.236 19.2857 18.5994 19.1352 18.8673 18.8673C19.1352 18.5994 19.2857 18.236 19.2857 17.8572V5.00001C19.2857 4.62113 19.1352 4.25777 18.8673 3.98986C18.5994 3.72195 18.236 3.57144 17.8572 3.57144H15" stroke="#9747FF" stroke-linecap="round" stroke-linejoin="round"/>
<path d="M5 0.714294V6.42858" stroke="#9747FF" stroke-linecap="round" stroke-linejoin="round"/>
<path d="M15 0.714294V6.42858" stroke="#9747FF" stroke-linecap="round" stroke-linejoin="round"/>
<path d="M5 3.57144H12.1429" stroke="#9747FF" stroke-linecap="round" stroke-linejoin="round"/>
<path d="M9.21432 7.67143C9.27581 7.51304 9.38375 7.37693 9.52396 7.28096C9.66417 7.18499 9.83012 7.13364 10 7.13364C10.1699 7.13364 10.3359 7.18499 10.4761 7.28096C10.6163 7.37693 10.7242 7.51304 10.7857 7.67143L11.7 10H14.1429C14.3026 10.0122 14.4557 10.0689 14.5849 10.1637C14.714 10.2585 14.814 10.3876 14.8735 10.5363C14.933 10.6851 14.9496 10.8475 14.9215 11.0052C14.8934 11.1629 14.8216 11.3096 14.7143 11.4286L12.5572 13.3714L13.4715 15.2C13.5542 15.3605 13.5823 15.5437 13.5513 15.7217C13.5204 15.8996 13.4321 16.0626 13.3 16.1857C13.1688 16.3104 13.002 16.3912 12.8228 16.4168C12.6436 16.4424 12.4609 16.4116 12.3 16.3286L10 15.0714L7.70003 16.3286C7.53916 16.4116 7.35642 16.4424 7.17722 16.4168C6.99801 16.3912 6.83123 16.3104 6.70003 16.1857C6.56793 16.0626 6.47969 15.8996 6.44874 15.7217C6.41779 15.5437 6.44584 15.3605 6.5286 15.2L7.44289 13.3714L5.28574 11.4286C5.17848 11.3096 5.10671 11.1629 5.07857 11.0052C5.05043 10.8475 5.06706 10.6851 5.12655 10.5363C5.18605 10.3876 5.28604 10.2585 5.41518 10.1637C5.54432 10.0689 5.69744 10.0122 5.85717 10H8.30003L9.21432 7.67143Z" stroke="#9747FF" stroke-linecap="round" stroke-linejoin="round"/>
</g>
<defs>
<clipPath id="clip0_14_403">
<rect width="20" height="20" fill="white"/>
</clipPath>
</defs>
</svg>
